# WaveFront *.obj file (generated by Autodesk ATF)

mtllib Button.mtl

g Base

v 0.019586 0.015000 0.024000
v -0.019586 0.015000 0.024000
v -0.020000 0.014000 0.025000
v 0.020000 0.014000 0.025000
v -0.024000 0.015000 0.019586
v -0.025000 0.014000 0.020000
v -0.024000 0.015000 -0.019586
v -0.025000 0.014000 -0.020000
v -0.020000 0.014000 -0.025000
v -0.019586 0.015000 -0.024000
v 0.020000 0.014000 -0.025000
v 0.019586 0.015000 -0.024000
v 0.025000 0.014000 -0.020000
v 0.024000 0.015000 -0.019586
v 0.025000 0.014000 0.020000
v 0.024000 0.015000 0.019586
v 0.025000 0.000000 -0.020000
v 0.020000 0.000000 -0.025000
v 0.025000 0.000000 0.020000
v 0.020000 0.000000 0.025000
v -0.020000 0.000000 0.025000
v -0.021000 0.015000 0.018414
v -0.021000 0.015000 -0.018414
v -0.018414 0.015000 -0.021000
v 0.018414 0.015000 -0.021000
v 0.021000 0.015000 -0.018414
v 0.021000 0.015000 0.018414
v 0.018414 0.015000 0.021000
v -0.018414 0.015000 0.021000
v -0.020000 0.014000 0.018000
v -0.020000 0.014000 -0.018000
v -0.018000 0.014000 0.020000
v 0.018000 0.014000 0.020000
v 0.020000 0.014000 0.018000
v 0.020000 0.014000 -0.018000
v 0.018000 0.014000 -0.020000
v -0.018000 0.014000 -0.020000
v 0.018000 0.005000 -0.020000
v 0.020000 0.005000 -0.018000
v -0.018000 0.005000 -0.020000
v -0.020000 0.005000 -0.018000
v -0.020000 0.005000 0.018000
v -0.018000 0.005000 0.020000
v 0.020000 0.005000 0.018000
v 0.018000 0.005000 0.020000
v -0.020000 0.000000 -0.025000
v -0.025000 0.000000 -0.020000
v -0.025000 0.000000 0.020000
vt 3.208579 0.070711 0.000000
vt -0.708579 0.070711 0.000000
vt 3.250000 -0.070711 0.000000
vt -0.750000 -0.070711 0.000000
vt 0.312132 0.070711 0.000000
vt -0.312132 0.070711 0.000000
vt 0.353553 -0.070711 0.000000
vt -0.353553 -0.070711 0.000000
vt 3.208579 0.070711 0.000000
vt -0.708579 0.070711 0.000000
vt 3.250000 -0.070711 0.000000
vt -0.750000 -0.070711 0.000000
vt -0.353553 -0.070711 0.000000
vt 0.353553 -0.070711 0.000000
vt -0.312132 0.070711 0.000000
vt 0.312132 0.070711 0.000000
vt -0.750000 -0.070711 0.000000
vt 3.250000 -0.070711 0.000000
vt -0.708579 0.070711 0.000000
vt 3.208579 0.070711 0.000000
vt -0.353553 -0.070711 0.000000
vt 0.353553 -0.070711 0.000000
vt -0.312132 0.070711 0.000000
vt 0.312132 0.070711 0.000000
vt -0.750000 -0.070711 0.000000
vt 3.250000 -0.070711 0.000000
vt -0.708579 0.070711 0.000000
vt 3.208579 0.070711 0.000000
vt -0.353553 -0.070711 0.000000
vt 0.353553 -0.070711 0.000000
vt -0.312132 0.070711 0.000000
vt 0.312132 0.070711 0.000000
vt 0.353553 1.400000 0.000000
vt -0.353553 1.400000 0.000000
vt 0.353553 0.000000 0.000000
vt -0.353553 0.000000 0.000000
vt 4.500000 1.400000 0.000000
vt 0.500000 1.400000 0.000000
vt 4.500000 0.000000 0.000000
vt 0.500000 0.000000 0.000000
vt 0.353553 1.400000 0.000000
vt -0.353553 1.400000 0.000000
vt 0.353553 0.000000 0.000000
vt -0.353553 0.000000 0.000000
vt 4.500000 1.400000 0.000000
vt 0.500000 1.400000 0.000000
vt 4.500000 0.000000 0.000000
vt 0.500000 0.000000 0.000000
vt -1.841421 -2.100000 0.000000
vt 1.958579 -2.400000 0.000000
vt 1.841421 -2.100000 0.000000
vt 2.400000 -1.958579 0.000000
vt 2.100000 -1.841421 0.000000
vt 2.100000 1.841421 0.000000
vt 2.400000 1.958579 0.000000
vt 1.841421 2.100000 0.000000
vt 1.958579 2.400000 0.000000
vt -1.958579 2.400000 0.000000
vt -2.100000 -1.841421 0.000000
vt -2.400000 -1.958579 0.000000
vt -1.958579 -2.400000 0.000000
vt -2.100000 1.841421 0.000000
vt -2.400000 1.958579 0.000000
vt -1.841421 2.100000 0.000000
vt 2.841421 0.070711 0.000000
vt -0.841421 0.070711 0.000000
vt 2.800000 -0.070711 0.000000
vt -0.800000 -0.070711 0.000000
vt 0.182843 0.070711 0.000000
vt -0.182843 0.070711 0.000000
vt 0.141421 -0.070711 0.000000
vt -0.141421 -0.070711 0.000000
vt 2.841421 0.070711 0.000000
vt -0.841421 0.070711 0.000000
vt 2.800000 -0.070711 0.000000
vt -0.800000 -0.070711 0.000000
vt 0.182843 0.070711 0.000000
vt -0.182843 0.070711 0.000000
vt 0.141421 -0.070711 0.000000
vt -0.141421 -0.070711 0.000000
vt 2.841421 0.070711 0.000000
vt -0.841421 0.070711 0.000000
vt 2.800000 -0.070711 0.000000
vt -0.800000 -0.070711 0.000000
vt -0.141421 -0.070711 0.000000
vt 0.141421 -0.070711 0.000000
vt -0.182843 0.070711 0.000000
vt 0.182843 0.070711 0.000000
vt -0.800000 -0.070711 0.000000
vt 2.800000 -0.070711 0.000000
vt -0.841421 0.070711 0.000000
vt 2.841421 0.070711 0.000000
vt -0.141421 -0.070711 0.000000
vt 0.141421 -0.070711 0.000000
vt -0.182843 0.070711 0.000000
vt 0.182843 0.070711 0.000000
vt 0.141421 -0.100000 0.000000
vt -0.141421 -0.100000 0.000000
vt 0.141421 -1.000000 0.000000
vt -0.141421 -1.000000 0.000000
vt -3.800000 0.100000 0.000000
vt -0.200000 0.100000 0.000000
vt -3.800000 1.000000 0.000000
vt -0.200000 1.000000 0.000000
vt 0.141421 -0.100000 0.000000
vt -0.141421 -0.100000 0.000000
vt 0.141421 -1.000000 0.000000
vt -0.141421 -1.000000 0.000000
vt -3.800000 0.100000 0.000000
vt -0.200000 0.100000 0.000000
vt -3.800000 1.000000 0.000000
vt -0.200000 1.000000 0.000000
vt 0.141421 -0.100000 0.000000
vt -0.141421 -0.100000 0.000000
vt 0.141421 -1.000000 0.000000
vt -0.141421 -1.000000 0.000000
vt 0.141421 -0.100000 0.000000
vt -0.141421 -0.100000 0.000000
vt 0.141421 -1.000000 0.000000
vt -0.141421 -1.000000 0.000000
vt 2.000000 -1.800000 0.000000
vt -2.000000 1.800000 0.000000
vt 1.800000 -2.000000 0.000000
vt -2.000000 -1.800000 0.000000
vt -1.800000 -2.000000 0.000000
vt -1.800000 2.000000 0.000000
vt 2.000000 1.800000 0.000000
vt 1.800000 2.000000 0.000000
vt -3.800000 0.100000 0.000000
vt -0.200000 0.100000 0.000000
vt -3.800000 1.000000 0.000000
vt -0.200000 1.000000 0.000000
vt -3.800000 0.100000 0.000000
vt -0.200000 0.100000 0.000000
vt -3.800000 1.000000 0.000000
vt -0.200000 1.000000 0.000000
vt 0.353553 1.400000 0.000000
vt -0.353553 1.400000 0.000000
vt 0.353553 0.000000 0.000000
vt -0.353553 0.000000 0.000000
vt 4.500000 1.400000 0.000000
vt 0.500000 1.400000 0.000000
vt 4.500000 0.000000 0.000000
vt 0.500000 0.000000 0.000000
vt 0.353553 1.400000 0.000000
vt -0.353553 1.400000 0.000000
vt 0.353553 0.000000 0.000000
vt -0.353553 0.000000 0.000000
vt 4.500000 1.400000 0.000000
vt 0.500000 1.400000 0.000000
vt 4.500000 0.000000 0.000000
vt 0.500000 0.000000 0.000000
vt 2.000000 2.500000 0.000000
vt -2.000000 2.500000 0.000000
vt 2.500000 2.000000 0.000000
vt 2.500000 -2.000000 0.000000
vt -2.500000 2.000000 0.000000
vt 2.000000 -2.500000 0.000000
vt -2.500000 -2.000000 0.000000
vt -2.000000 -2.500000 0.000000
vn 0.000000 70.710678 70.710678
vn 0.000000 70.710678 70.710678
vn 0.000000 70.710678 70.710678
vn 0.000000 70.710678 70.710678
vn -50.000000 70.710678 50.000000
vn -50.000000 70.710678 50.000000
vn -50.000000 70.710678 50.000000
vn -50.000000 70.710678 50.000000
vn -70.710678 70.710678 0.000000
vn -70.710678 70.710678 0.000000
vn -70.710678 70.710678 0.000000
vn -70.710678 70.710678 0.000000
vn -50.000000 70.710678 -50.000000
vn -50.000000 70.710678 -50.000000
vn -50.000000 70.710678 -50.000000
vn -50.000000 70.710678 -50.000000
vn 0.000000 70.710678 -70.710678
vn 0.000000 70.710678 -70.710678
vn 0.000000 70.710678 -70.710678
vn 0.000000 70.710678 -70.710678
vn 50.000000 70.710678 -50.000000
vn 50.000000 70.710678 -50.000000
vn 50.000000 70.710678 -50.000000
vn 50.000000 70.710678 -50.000000
vn 70.710678 70.710678 0.000000
vn 70.710678 70.710678 0.000000
vn 70.710678 70.710678 0.000000
vn 70.710678 70.710678 0.000000
vn 50.000000 70.710678 50.000000
vn 50.000000 70.710678 50.000000
vn 50.000000 70.710678 50.000000
vn 50.000000 70.710678 50.000000
vn 70.710678 0.000000 -70.710678
vn 70.710678 0.000000 -70.710678
vn 70.710678 0.000000 -70.710678
vn 70.710678 0.000000 -70.710678
vn 100.000000 0.000000 0.000000
vn 100.000000 0.000000 0.000000
vn 100.000000 0.000000 0.000000
vn 100.000000 0.000000 0.000000
vn 70.710678 0.000000 70.710678
vn 70.710678 0.000000 70.710678
vn 70.710678 0.000000 70.710678
vn 70.710678 0.000000 70.710678
vn 0.000000 -0.000000 100.000000
vn 0.000000 -0.000000 100.000000
vn 0.000000 -0.000000 100.000000
vn 0.000000 -0.000000 100.000000
vn 0.000000 100.000000 0.000000
vn 0.000000 100.000000 0.000000
vn 0.000000 100.000000 0.000000
vn 0.000000 100.000000 0.000000
vn 0.000000 100.000000 0.000000
vn 0.000000 100.000000 0.000000
vn 0.000000 100.000000 0.000000
vn 0.000000 100.000000 0.000000
vn 0.000000 100.000000 0.000000
vn 0.000000 100.000000 0.000000
vn 0.000000 100.000000 0.000000
vn 0.000000 100.000000 0.000000
vn 0.000000 100.000000 0.000000
vn 0.000000 100.000000 0.000000
vn 0.000000 100.000000 0.000000
vn 0.000000 100.000000 0.000000
vn 70.710678 70.710678 0.000000
vn 70.710678 70.710678 0.000000
vn 70.710678 70.710678 0.000000
vn 70.710678 70.710678 0.000000
vn 50.000000 70.710678 -50.000000
vn 50.000000 70.710678 -50.000000
vn 50.000000 70.710678 -50.000000
vn 50.000000 70.710678 -50.000000
vn 0.000000 70.710678 -70.710678
vn 0.000000 70.710678 -70.710678
vn 0.000000 70.710678 -70.710678
vn 0.000000 70.710678 -70.710678
vn -50.000000 70.710678 -50.000000
vn -50.000000 70.710678 -50.000000
vn -50.000000 70.710678 -50.000000
vn -50.000000 70.710678 -50.000000
vn -70.710678 70.710678 0.000000
vn -70.710678 70.710678 0.000000
vn -70.710678 70.710678 0.000000
vn -70.710678 70.710678 0.000000
vn -50.000000 70.710678 50.000000
vn -50.000000 70.710678 50.000000
vn -50.000000 70.710678 50.000000
vn -50.000000 70.710678 50.000000
vn 0.000000 70.710678 70.710678
vn 0.000000 70.710678 70.710678
vn 0.000000 70.710678 70.710678
vn 0.000000 70.710678 70.710678
vn 50.000000 70.710678 50.000000
vn 50.000000 70.710678 50.000000
vn 50.000000 70.710678 50.000000
vn 50.000000 70.710678 50.000000
vn -70.710678 0.000000 70.710678
vn -70.710678 0.000000 70.710678
vn -70.710678 0.000000 70.710678
vn -70.710678 0.000000 70.710678
vn 0.000000 0.000000 100.000000
vn 0.000000 0.000000 100.000000
vn 0.000000 0.000000 100.000000
vn 0.000000 0.000000 100.000000
vn 70.710678 0.000000 70.710678
vn 70.710678 0.000000 70.710678
vn 70.710678 0.000000 70.710678
vn 70.710678 0.000000 70.710678
vn 100.000000 0.000000 0.000000
vn 100.000000 0.000000 0.000000
vn 100.000000 0.000000 0.000000
vn 100.000000 0.000000 0.000000
vn 70.710678 0.000000 -70.710678
vn 70.710678 0.000000 -70.710678
vn 70.710678 0.000000 -70.710678
vn 70.710678 0.000000 -70.710678
vn -70.710678 0.000000 -70.710678
vn -70.710678 0.000000 -70.710678
vn -70.710678 0.000000 -70.710678
vn -70.710678 0.000000 -70.710678
vn -0.000000 100.000000 -0.000000
vn -0.000000 100.000000 -0.000000
vn -0.000000 100.000000 -0.000000
vn -0.000000 100.000000 -0.000000
vn -0.000000 100.000000 -0.000000
vn -0.000000 100.000000 -0.000000
vn -0.000000 100.000000 -0.000000
vn -0.000000 100.000000 -0.000000
vn -100.000000 0.000000 0.000000
vn -100.000000 0.000000 0.000000
vn -100.000000 0.000000 0.000000
vn -100.000000 0.000000 0.000000
vn 0.000000 0.000000 -100.000000
vn 0.000000 0.000000 -100.000000
vn 0.000000 0.000000 -100.000000
vn 0.000000 0.000000 -100.000000
vn -70.710678 0.000000 -70.710678
vn -70.710678 0.000000 -70.710678
vn -70.710678 0.000000 -70.710678
vn -70.710678 0.000000 -70.710678
vn 0.000000 0.000000 -100.000000
vn 0.000000 0.000000 -100.000000
vn 0.000000 0.000000 -100.000000
vn 0.000000 0.000000 -100.000000
vn -70.710678 0.000000 70.710678
vn -70.710678 0.000000 70.710678
vn -70.710678 0.000000 70.710678
vn -70.710678 0.000000 70.710678
vn -100.000000 0.000000 0.000000
vn -100.000000 0.000000 0.000000
vn -100.000000 0.000000 0.000000
vn -100.000000 0.000000 0.000000
vn 0.000000 -100.000000 0.000000
vn 0.000000 -100.000000 0.000000
vn 0.000000 -100.000000 0.000000
vn 0.000000 -100.000000 0.000000
vn 0.000000 -100.000000 0.000000
vn 0.000000 -100.000000 0.000000
vn 0.000000 -100.000000 0.000000
vn 0.000000 -100.000000 0.000000
usemtl Steel_-_Satin
f 1/1/1 2/2/2 4/3/3
f 4/3/3 2/2/2 3/4/4
f 2/5/5 5/6/6 3/7/7
f 3/7/7 5/6/6 6/8/8
f 5/9/9 7/10/10 6/11/11
f 6/11/11 7/10/10 8/12/12
f 9/13/13 8/14/14 10/15/15
f 10/15/15 8/14/14 7/16/16
f 11/17/17 9/18/18 12/19/19
f 12/19/19 9/18/18 10/20/20
f 13/21/21 11/22/22 14/23/23
f 14/23/23 11/22/22 12/24/24
f 15/25/25 13/26/26 16/27/27
f 16/27/27 13/26/26 14/28/28
f 4/29/29 15/30/30 1/31/31
f 1/31/31 15/30/30 16/32/32
f 11/33/33 13/34/34 18/35/35
f 18/35/35 13/34/34 17/36/36
f 13/37/37 15/38/38 17/39/39
f 17/39/39 15/38/38 19/40/40
f 15/41/41 4/42/42 19/43/43
f 19/43/43 4/42/42 20/44/44
f 4/45/45 3/46/46 20/47/47
f 20/47/47 3/46/46 21/48/48
f 23/49/49 5/50/50 22/51/51
f 22/51/51 5/50/50 2/52/52
f 22/51/51 2/52/52 29/53/53
f 29/53/53 2/52/52 28/54/54
f 28/54/54 2/52/52 1/55/55
f 28/54/54 1/55/55 27/56/56
f 27/56/56 1/55/55 16/57/57
f 27/56/56 16/57/57 14/58/58
f 24/59/59 10/60/60 23/49/49
f 23/49/49 10/60/60 7/61/61
f 23/49/49 7/61/61 5/50/50
f 24/59/59 25/62/62 10/60/60
f 10/60/60 25/62/62 12/63/63
f 12/63/63 25/62/62 26/64/64
f 12/63/63 26/64/64 14/58/58
f 14/58/58 26/64/64 27/56/56
f 23/65/65 22/66/66 31/67/67
f 31/67/67 22/66/66 30/68/68
f 22/69/69 29/70/70 30/71/71
f 30/71/71 29/70/70 32/72/72
f 29/73/73 28/74/74 32/75/75
f 32/75/75 28/74/74 33/76/76
f 28/77/77 27/78/78 33/79/79
f 33/79/79 27/78/78 34/80/80
f 27/81/81 26/82/82 34/83/83
f 34/83/83 26/82/82 35/84/84
f 36/85/85 35/86/86 25/87/87
f 25/87/87 35/86/86 26/88/88
f 37/89/89 36/90/90 24/91/91
f 24/91/91 36/90/90 25/92/92
f 31/93/93 37/94/94 23/95/95
f 23/95/95 37/94/94 24/96/96
f 35/97/97 36/98/98 39/99/99
f 39/99/99 36/98/98 38/100/100
f 36/101/101 37/102/102 38/103/103
f 38/103/103 37/102/102 40/104/104
f 37/105/105 31/106/106 40/107/107
f 40/107/107 31/106/106 41/108/108
f 31/109/109 30/110/110 41/111/111
f 41/111/111 30/110/110 42/112/112
f 30/113/113 32/114/114 42/115/115
f 42/115/115 32/114/114 43/116/116
f 33/117/117 34/118/118 45/119/119
f 45/119/119 34/118/118 44/120/120
f 43/121/121 38/122/122 42/123/123
f 42/123/123 38/122/122 40/124/124
f 42/123/123 40/124/124 41/125/125
f 38/122/122 43/121/121 39/126/126
f 39/126/126 43/121/121 45/127/127
f 39/126/126 45/127/127 44/128/128
f 34/129/129 35/130/130 44/131/131
f 44/131/131 35/130/130 39/132/132
f 32/133/133 33/134/134 43/135/135
f 43/135/135 33/134/134 45/136/136
f 8/137/137 9/138/138 47/139/139
f 47/139/139 9/138/138 46/140/140
f 9/141/141 11/142/142 46/143/143
f 46/143/143 11/142/142 18/144/144
f 3/145/145 6/146/146 21/147/147
f 21/147/147 6/146/146 48/148/148
f 6/149/149 8/150/150 48/151/151
f 48/151/151 8/150/150 47/152/152
f 46/153/153 18/154/154 47/155/155
f 47/155/155 18/154/154 48/156/156
f 48/156/156 18/154/154 17/157/157
f 48/156/156 17/157/157 21/158/158
f 21/158/158 17/157/157 19/159/159
f 21/158/158 19/159/159 20/160/160
g Btn

v 0.015813 0.030000 -0.015813
v 0.017987 0.028008 -0.015980
v 0.015980 0.028008 -0.017987
v 0.020000 0.005000 -0.017992
v 0.017992 0.005000 -0.020000
v 0.015813 0.030000 0.015813
v 0.015980 0.028008 0.017987
v 0.017987 0.028008 0.015980
v 0.017992 0.005000 0.020000
v 0.020000 0.005000 0.017992
v -0.015813 0.030000 -0.015813
v -0.015980 0.028008 -0.017987
v -0.017987 0.028008 -0.015980
v -0.017992 0.005000 -0.020000
v -0.020000 0.005000 -0.017992
v -0.015813 0.030000 0.015813
v -0.017987 0.028008 0.015980
v -0.015980 0.028008 0.017987
v -0.020000 0.005000 0.017992
v -0.017992 0.005000 0.020000
vt -0.141957 0.259034 0.000000
vt -0.283915 0.000000 0.000000
vt 0.000000 0.000000 0.000000
vt -0.141957 -0.156222 0.000000
vt 0.141957 -0.156222 0.000000
vt -0.141957 2.162083 0.000000
vt 0.141957 2.162083 0.000000
vt -0.141957 0.259034 0.000000
vt -0.283915 0.000000 0.000000
vt 0.000000 0.000000 0.000000
vt -0.141957 -0.156222 0.000000
vt 0.141957 -0.156222 0.000000
vt -0.141957 2.162083 0.000000
vt 0.141957 2.162083 0.000000
vt -2.597951 -0.147455 0.000000
vt 0.597951 -0.147455 0.000000
vt -2.581278 0.147455 0.000000
vt 0.581278 0.147455 0.000000
vt -0.141957 0.259034 0.000000
vt -0.283915 -0.000000 0.000000
vt 0.000000 0.000000 0.000000
vt -0.141957 -0.156222 0.000000
vt 0.141957 -0.156222 0.000000
vt -0.141957 2.162083 0.000000
vt 0.141957 2.162083 0.000000
vt -0.141957 0.259034 0.000000
vt -0.283915 0.000000 0.000000
vt -0.000000 0.000000 0.000000
vt -0.141957 -0.156222 0.000000
vt 0.141957 -0.156222 0.000000
vt -0.141957 2.162083 0.000000
vt 0.141957 2.162083 0.000000
vt -2.597951 -0.147455 0.000000
vt 0.597951 -0.147455 0.000000
vt -2.581278 0.147455 0.000000
vt 0.581278 0.147455 0.000000
vt -2.597951 -0.147455 0.000000
vt 0.597951 -0.147455 0.000000
vt -2.581278 0.147455 0.000000
vt 0.581278 0.147455 0.000000
vt -2.597951 -0.147455 0.000000
vt 0.597951 -0.147455 0.000000
vt -2.581278 0.147455 0.000000
vt 0.581278 0.147455 0.000000
vt -0.402049 2.309550 0.000000
vt -3.597951 2.309550 0.000000
vt -0.200758 0.000000 0.000000
vt -3.799242 0.000000 0.000000
vt -0.402049 2.309550 0.000000
vt -3.597951 2.309550 0.000000
vt -0.200758 0.000000 0.000000
vt -3.799242 0.000000 0.000000
vt 1.799242 2.000000 0.000000
vt -1.799242 2.000000 0.000000
vt 2.000000 1.799242 0.000000
vt 2.000000 -1.799242 0.000000
vt -2.000000 1.799242 0.000000
vt 1.799242 -2.000000 0.000000
vt -2.000000 -1.799242 0.000000
vt -1.799242 -2.000000 0.000000
vt 1.581278 1.581278 0.000000
vt -1.581278 1.581278 0.000000
vt 1.581278 -1.581278 0.000000
vt -1.581278 -1.581278 0.000000
vt -3.799242 0.000000 0.000000
vt -0.200758 0.000000 0.000000
vt -3.597951 2.309550 0.000000
vt -0.402049 2.309550 0.000000
vt -3.799242 0.000000 0.000000
vt -0.200758 0.000000 0.000000
vt -3.597951 2.309550 0.000000
vt -0.402049 2.309550 0.000000
vn 54.387956 63.905403 -54.387956
vn 54.387956 63.905403 -54.387956
vn 54.387956 63.905403 -54.387956
vn 70.175576 12.279135 -70.175576
vn 70.175576 12.279135 -70.175576
vn 70.175576 12.279135 -70.175576
vn 70.175576 12.279135 -70.175576
vn 54.387956 63.905403 54.387956
vn 54.387956 63.905403 54.387956
vn 54.387956 63.905403 54.387956
vn 70.175576 12.279135 70.175576
vn 70.175576 12.279135 70.175576
vn 70.175576 12.279135 70.175576
vn 70.175576 12.279135 70.175576
vn 67.559021 73.727734 0.000000
vn 67.559021 73.727734 0.000000
vn 67.559021 73.727734 0.000000
vn 67.559021 73.727734 0.000000
vn -54.387956 63.905403 -54.387956
vn -54.387956 63.905403 -54.387956
vn -54.387956 63.905403 -54.387956
vn -70.175576 12.279135 -70.175576
vn -70.175576 12.279135 -70.175576
vn -70.175576 12.279135 -70.175576
vn -70.175576 12.279135 -70.175576
vn -54.387956 63.905403 54.387956
vn -54.387956 63.905403 54.387956
vn -54.387956 63.905403 54.387956
vn -70.175576 12.279135 70.175576
vn -70.175576 12.279135 70.175576
vn -70.175576 12.279135 70.175576
vn -70.175576 12.279135 70.175576
vn 0.000000 73.727734 67.559021
vn 0.000000 73.727734 67.559021
vn 0.000000 73.727734 67.559021
vn 0.000000 73.727734 67.559021
vn -67.559021 73.727734 -0.000000
vn -67.559021 73.727734 -0.000000
vn -67.559021 73.727734 -0.000000
vn -67.559021 73.727734 -0.000000
vn 0.000000 73.727734 -67.559021
vn 0.000000 73.727734 -67.559021
vn 0.000000 73.727734 -67.559021
vn 0.000000 73.727734 -67.559021
vn 99.619470 8.715574 0.000000
vn 99.619470 8.715574 0.000000
vn 99.619470 8.715574 0.000000
vn 99.619470 8.715574 0.000000
vn 0.000000 8.715574 99.619470
vn 0.000000 8.715574 99.619470
vn 0.000000 8.715574 99.619470
vn 0.000000 8.715574 99.619470
vn 0.000000 -100.000000 0.000000
vn 0.000000 -100.000000 0.000000
vn 0.000000 -100.000000 0.000000
vn 0.000000 -100.000000 0.000000
vn 0.000000 -100.000000 0.000000
vn 0.000000 -100.000000 0.000000
vn 0.000000 -100.000000 0.000000
vn 0.000000 -100.000000 0.000000
vn -0.000000 100.000000 -0.000000
vn -0.000000 100.000000 -0.000000
vn -0.000000 100.000000 -0.000000
vn -0.000000 100.000000 -0.000000
vn -99.619470 8.715574 0.000000
vn -99.619470 8.715574 0.000000
vn -99.619470 8.715574 0.000000
vn -99.619470 8.715574 0.000000
vn 0.000000 8.715574 -99.619470
vn 0.000000 8.715574 -99.619470
vn 0.000000 8.715574 -99.619470
vn 0.000000 8.715574 -99.619470
f 49/161/161 50/162/162 51/163/163
f 52/164/164 53/165/165 50/166/166
f 50/166/166 53/165/165 51/167/167
f 54/168/168 55/169/169 56/170/170
f 57/171/171 58/172/172 55/173/173
f 55/173/173 58/172/172 56/174/174
f 56/175/175 50/176/176 54/177/177
f 54/177/177 50/176/176 49/178/178
f 59/179/179 60/180/180 61/181/181
f 62/182/182 63/183/183 60/184/184
f 60/184/184 63/183/183 61/185/185
f 64/186/186 65/187/187 66/188/188
f 67/189/189 68/190/190 65/191/191
f 65/191/191 68/190/190 66/192/192
f 66/193/193 55/194/194 64/195/195
f 64/195/195 55/194/194 54/196/196
f 61/197/197 65/198/198 59/199/199
f 59/199/199 65/198/198 64/200/200
f 51/201/201 60/202/202 49/203/203
f 49/203/203 60/202/202 59/204/204
f 50/205/205 56/206/206 52/207/207
f 52/207/207 56/206/206 58/208/208
f 55/209/209 66/210/210 57/211/211
f 57/211/211 66/210/210 68/212/212
f 52/213/213 58/214/214 53/215/215
f 53/215/215 58/214/214 62/216/216
f 62/216/216 58/214/214 57/217/217
f 62/216/216 57/217/217 63/218/218
f 63/218/218 57/217/217 68/219/219
f 63/218/218 68/219/219 67/220/220
f 54/221/221 49/222/222 64/223/223
f 64/223/223 49/222/222 59/224/224
f 63/225/225 67/226/226 61/227/227
f 61/227/227 67/226/226 65/228/228
f 53/229/229 62/230/230 51/231/231
f 51/231/231 62/230/230 60/232/232
# 68 vertices
# 232 texture params
# 232 normals
# 128 facets

# 2 groups
