# Blender 4.2.1 LTS
# www.blender.org
mtllib RubberDuck.mtl
o rubber_duck_toy
v -0.000000 0.165952 0.103402
v 0.024481 0.208461 0.104562
v -0.000000 0.226247 0.110199
v 0.028932 0.181196 0.103527
v -0.000000 0.141924 -0.004400
v 0.038589 0.264128 0.063245
v 0.035510 0.141697 0.008244
v -0.000000 0.240365 -0.045652
v -0.002309 0.171221 -0.119371
v 0.059454 0.027243 0.112070
v 0.092275 0.094930 0.040995
v 0.014826 0.134126 -0.115676
v 0.079372 0.084229 -0.079664
v 0.009844 0.144462 -0.079547
v 0.005381 0.171477 -0.108521
v 0.000000 0.147443 0.087107
v -0.022684 0.225823 0.147571
v -0.036754 0.177021 0.093999
v -0.024481 0.208461 0.104562
v -0.030272 0.181111 0.103149
v -0.021814 0.182176 0.138996
v -0.038589 0.264128 0.063245
v -0.059454 0.027243 0.112070
v -0.092275 0.094930 0.040995
v -0.079372 0.084229 -0.079664
v -0.017564 0.139000 -0.108226
v -0.104065 0.028480 -0.015510
v 0.021112 0.178085 0.138113
v 0.020147 0.226368 0.148226
v 0.036990 0.175281 0.093712
v 0.041445 0.270586 0.016565
v -0.000000 0.285478 0.019401
v 0.063816 0.223250 0.060603
v 0.030909 0.251327 -0.030187
v -0.000000 0.266840 0.080694
v 0.021613 0.148172 0.079648
v -0.000000 0.077176 0.152899
v 0.000000 0.003135 -0.126994
v -0.000000 0.001243 0.119644
v 0.104065 0.028480 -0.015509
v -0.041445 0.270586 0.016565
v -0.063816 0.223250 0.060603
v -0.030909 0.251327 -0.030187
v -0.021613 0.148172 0.079648
v -0.035510 0.141697 0.008244
v 0.059165 0.224374 -0.014100
v 0.039790 0.091820 0.135276
v -0.059165 0.224374 -0.014100
v -0.039790 0.091820 0.135276
vn -0.2441 0.8243 -0.5108
vn 0.2804 0.9586 0.0502
vn 0.2698 0.9391 0.2128
vn -0.0030 -0.6494 -0.7605
vn -0.8656 -0.4900 -0.1030
vn -0.8150 0.2314 -0.5312
vn 0.8315 0.3811 0.4042
vn 0.9475 0.0992 0.3038
vn 0.5665 0.6981 0.4379
vn -0.0000 0.9928 -0.1195
vn 0.6317 0.7637 -0.1331
vn -0.8978 0.4005 0.1833
vn 0.7578 0.0780 0.6478
vn -0.0276 -0.8481 0.5290
vn -0.0000 0.0688 0.9976
vn -0.7937 -0.3755 0.4786
vn -0.7546 0.4940 0.4319
vn -0.8349 0.4096 0.3677
vn 0.5366 0.3533 0.7663
vn -0.5353 0.1733 0.8267
vn 0.7601 0.3958 0.5154
vn -0.6317 0.7637 -0.1331
vn -0.4343 0.5206 -0.7351
vn -0.8451 -0.0056 -0.5345
vn 0.6658 0.2914 -0.6868
vn -0.0000 0.1083 0.9941
vn 0.6757 -0.4887 0.5519
vn 0.5435 0.3678 0.7545
vn 0.0047 0.9374 0.3483
vn -0.5766 0.3563 0.7352
vn -0.0245 0.6647 -0.7467
vn -0.0000 0.1863 -0.9825
vn -0.5665 0.6981 0.4379
vn -0.9476 0.0965 0.3047
vn -0.0000 0.7612 0.6485
vn -0.7615 0.0940 0.6413
vn 0.8451 -0.0056 -0.5345
vn 0.4343 0.5206 -0.7351
vn -0.0000 -0.8386 0.5448
vn -0.6757 -0.4887 0.5519
vn -0.5366 0.3533 0.7663
vn -0.8399 0.4459 -0.3095
vn -0.7510 0.4980 -0.4335
vn 0.8978 0.4005 0.1833
vn 0.7890 -0.3862 0.4778
vn 0.8422 0.4417 -0.3093
vn 0.8656 -0.4900 -0.1030
vn 0.9527 0.2765 -0.1264
vn 0.5151 0.0328 0.8565
vn 0.7747 0.2293 -0.5893
vt 0.549102 0.628267
vt 0.491969 0.680640
vt 0.524469 0.629067
vt 0.643140 0.456033
vt 0.585460 0.682253
vt 0.502057 0.589621
vt 0.830820 0.719565
vt 0.835203 0.805301
vt 0.895896 0.801228
vt 0.964632 0.865045
vt 0.897744 0.862208
vt 0.008929 0.209066
vt 0.245176 0.029587
vt 0.193548 0.411640
vt 0.699980 0.748200
vt 0.711016 0.687766
vt 0.680564 0.718587
vt 0.721978 0.461427
vt 0.670878 0.454677
vt 0.680757 0.361187
vt 0.189036 0.507223
vt 0.304428 0.566599
vt 0.323004 0.529532
vt 0.884703 0.275416
vt 0.988117 0.314106
vt 0.885993 0.422659
vt 0.765764 0.567791
vt 0.789486 0.503717
vt 0.831316 0.536703
vt 0.027745 0.958846
vt 0.275532 0.943890
vt 0.268388 0.912098
vt 0.178642 0.423468
vt 0.086759 0.532766
vt 0.527178 0.170904
vt 0.664094 0.239127
vt 0.533187 0.316505
vt 0.987028 0.485584
vt 0.788373 0.448769
vt 0.716153 0.138380
vt 0.851494 0.027908
vt 0.853991 0.203612
vt 0.669422 0.023023
vt 0.680757 0.117067
vt 0.767611 0.628771
vt 0.828304 0.624698
vt 0.832687 0.710433
vt 0.698875 0.564953
vt 0.723506 0.674262
vt 0.963527 0.681798
vt 0.952491 0.742232
vt 0.887592 0.685474
vt 0.832191 0.893295
vt 0.874021 0.926281
vt 0.651748 0.953592
vt 0.582556 0.880586
vt 0.346310 0.883819
vt 0.364886 0.846753
vt 0.480278 0.906129
vt 0.359684 0.709267
vt 0.393956 0.514347
vt 0.538724 0.703414
vt 0.513024 0.758384
vt 0.514153 0.704356
vt 0.875134 0.981229
vt 0.490672 0.989884
vt 0.188185 0.644626
vt 0.481129 0.768726
vt 0.676479 0.944414
vt 0.969235 0.546615
vt 0.772082 0.742130
vt 0.694272 0.883383
vt 0.545322 0.687891
vt 0.260722 0.220799
vt 0.445341 0.423373
vt 0.496969 0.041320
vt 0.860297 0.101645
vt 0.985345 0.110733
vt 0.975458 0.246341
vt 0.860279 0.244815
vt 0.393782 0.469462
vt 0.940001 0.755737
vt 0.884811 0.695342
vt 0.727866 0.265236
vt 0.859096 0.374320
vt 0.786392 0.364467
vt 0.167257 0.823731
vt 0.083854 0.731099
vt 0.017566 0.459760
vt 0.726843 0.017163
vt 0.778696 0.734656
vt 0.982943 0.711411
vt 0.309630 0.704084
vt 0.311925 0.860560
vt 0.354162 0.736809
vt 0.785331 0.042627
vt 0.315152 0.676543
vt 0.342202 0.556713
vt 0.566310 0.754386
s 1
usemtl rubber_duck_toy
f 9/1/1 14/2/2 15/3/3
f 38/4/4 27/5/5 25/6/6
f 2/7/7 33/8/8 6/9/9
f 32/10/10 6/9/9 31/11/11
f 27/12/5 24/13/12 25/14/6
f 36/15/13 1/16/14 16/17/15
f 18/18/16 20/19/17 19/20/18
f 47/21/19 36/22/13 16/23/15
f 20/24/17 21/25/20 4/26/21
f 41/27/22 43/28/23 48/29/24
f 38/30/4 9/31/1 12/32/25
f 37/33/26 10/34/27 47/21/19
f 29/35/28 3/36/29 17/37/30
f 5/38/31 48/29/24 8/39/32
f 21/40/20 18/41/16 1/42/14
f 29/35/28 4/43/21 2/44/7
f 22/45/33 42/46/34 19/47/18
f 32/48/10 22/45/33 35/49/35
f 44/50/36 1/51/14 18/52/16
f 46/53/37 34/54/38 31/11/11
f 27/5/5 39/55/39 23/56/40
f 32/48/10 43/28/23 41/27/22
f 16/57/15 44/58/36 49/59/41
f 25/6/6 45/60/42 26/61/43
f 15/62/3 12/63/25 9/64/1
f 32/10/10 34/54/38 8/65/32
f 37/66/26 23/56/40 39/55/39
f 11/67/44 47/21/19 10/34/27
f 24/68/12 27/5/5 23/56/40
f 46/53/37 5/69/31 8/65/32
f 18/52/16 45/70/42 44/50/36
f 30/71/45 36/15/13 7/72/46
f 3/36/29 19/20/18 17/37/30
f 9/1/1 26/73/43 14/2/2
f 40/74/47 13/75/48 11/76/44
f 4/77/21 29/78/28 17/79/30
f 17/79/30 20/80/17 4/77/21
f 9/81/1 38/4/4 26/61/43
f 26/61/43 38/4/4 25/6/6
f 6/9/9 35/82/35 2/7/7
f 35/82/35 3/83/29 2/7/7
f 32/10/10 35/82/35 6/9/9
f 36/15/13 30/71/45 1/16/14
f 20/19/17 17/37/30 19/20/18
f 28/84/49 30/85/45 4/86/21
f 16/23/15 37/33/26 47/21/19
f 48/29/24 42/46/34 41/27/22
f 42/46/34 22/45/33 41/27/22
f 12/32/25 13/87/50 38/30/4
f 13/87/50 40/88/47 38/30/4
f 37/33/26 39/89/39 10/34/27
f 29/35/28 2/44/7 3/36/29
f 45/70/42 48/29/24 5/38/31
f 48/29/24 43/28/23 8/39/32
f 1/42/14 30/85/45 28/84/49
f 28/84/49 21/40/20 1/42/14
f 4/43/21 30/90/45 2/44/7
f 19/47/18 3/91/29 35/49/35
f 35/49/35 22/45/33 19/47/18
f 32/48/10 41/27/22 22/45/33
f 44/50/36 16/92/15 1/51/14
f 31/11/11 6/9/9 33/8/8
f 33/8/8 46/53/37 31/11/11
f 11/67/44 13/87/50 7/93/46
f 13/87/50 12/32/25 14/94/2
f 13/87/50 14/94/2 7/93/46
f 36/22/13 47/21/19 11/67/44
f 7/93/46 36/22/13 11/67/44
f 14/94/2 5/95/31 7/93/46
f 18/41/16 21/40/20 20/96/17
f 38/4/4 39/55/39 27/5/5
f 32/48/10 8/39/32 43/28/23
f 21/40/20 28/84/49 4/86/21
f 37/66/26 16/57/15 49/59/41
f 25/6/6 24/68/12 45/60/42
f 24/68/12 49/59/41 44/58/36
f 45/60/42 24/68/12 44/58/36
f 45/60/42 5/97/31 26/61/43
f 5/97/31 14/98/2 26/61/43
f 15/62/3 14/99/2 12/63/25
f 32/10/10 31/11/11 34/54/38
f 37/66/26 49/59/41 23/56/40
f 10/34/27 40/88/47 11/67/44
f 39/89/39 38/30/4 40/88/47
f 40/88/47 10/34/27 39/89/39
f 23/56/40 49/59/41 24/68/12
f 8/65/32 34/54/38 46/53/37
f 46/53/37 7/72/46 5/69/31
f 18/52/16 19/47/18 42/46/34
f 42/46/34 48/29/24 45/70/42
f 18/52/16 42/46/34 45/70/42
f 46/53/37 33/8/8 7/72/46
f 33/8/8 2/7/7 30/71/45
f 33/8/8 30/71/45 7/72/46
