# Blender 4.2.1 LTS
# www.blender.org
o Cube
v -0.353692 -0.383292 0.567109
v -0.541059 -0.290277 0.553148
v -0.208129 -0.243406 -0.382376
v -0.308394 -0.158932 -0.566910
v 0.983542 -0.294358 0.015468
v 0.793896 1.824856 -0.576249
v 0.592731 -0.077587 -0.683424
v 0.526316 0.299905 -0.794466
v 1.354460 0.305935 -0.417743
v 1.432516 0.016057 -0.437262
v 1.389209 -0.049975 0.287602
v 1.525327 0.241215 0.530438
v -0.127747 -0.163736 1.261250
v -0.534274 0.168835 1.765320
v 0.742740 0.228476 1.804190
v 0.822487 -0.167904 1.198973
v 1.317886 0.289673 1.233034
v 1.408386 -0.129401 1.087758
v -0.566920 0.762487 0.310556
v -0.368556 0.522569 -0.440597
v 0.301733 1.249590 -0.673817
v -0.108007 1.431120 0.643494
v 0.516685 1.255153 2.020162
v 1.386784 1.140535 -0.352772
v 1.332209 1.290228 0.675194
v -0.459629 1.047374 1.838677
v 1.496381 0.867157 1.465017
v 0.794325 1.481118 1.622965
v 1.392017 1.572278 0.165990
v 1.387286 1.515658 0.977291
v 1.144809 1.404703 1.418693
v 0.606178 1.966099 -0.443092
v 0.379250 2.259870 0.692713
v 0.422009 1.859574 1.265330
v 0.687163 2.182437 -0.103987
v 0.740804 2.197624 0.295886
v 0.720815 1.727570 1.425132
v 1.166006 2.163192 -0.044335
v 1.388425 1.954566 0.464853
v 0.898860 1.697404 1.346543
vn -0.4244 -0.8842 -0.1953
vn 0.0262 -0.9035 -0.4278
vn 0.9412 -0.1747 -0.2892
vn -0.3077 -0.8892 0.3385
vn 0.0061 -0.9894 -0.1448
vn -0.9997 -0.0214 0.0137
vn 0.9638 0.2541 0.0807
vn 0.2647 0.1356 -0.9547
vn -0.9769 -0.0476 -0.2085
vn 0.5373 -0.8422 -0.0446
vn 0.0324 -0.8341 0.5506
vn 0.5679 -0.6522 0.5020
vn 0.0153 -0.9548 0.2970
vn 0.4322 -0.8886 0.1538
vn 0.9225 -0.3812 -0.0600
vn 0.4131 0.0548 -0.9090
vn 0.7472 0.5071 -0.4296
vn -0.7061 0.6378 -0.3075
vn 0.5686 0.4780 0.6694
vn -0.2434 0.9421 0.2309
vn -0.3604 0.0332 -0.9322
vn 0.4664 -0.0826 0.8807
vn 0.9838 0.1775 0.0264
vn -0.0265 -0.0809 0.9964
vn 0.2179 0.7750 0.5932
vn -0.8081 0.4527 0.3768
vn 0.9744 -0.2247 -0.0100
vn 1.0000 0.0046 0.0062
vn 0.6991 0.5012 0.5100
vn 0.7899 0.0860 -0.6072
vn 0.0456 0.9980 -0.0440
vn 0.2329 0.8912 0.3893
vn 0.5913 0.6810 0.4319
vn -0.6219 0.7191 -0.3102
vn 0.3977 0.6436 0.6540
vn 0.2057 0.8020 -0.5608
vn -0.8300 0.4561 -0.3210
vn 0.6042 0.6285 0.4899
vn -0.4055 -0.8943 -0.1891
vn -0.0961 -0.2964 -0.9502
vn 0.9525 0.1378 0.2717
vn -0.4317 -0.8101 0.3967
vn 0.0703 -0.9409 -0.3312
vn -0.9953 0.0800 0.0550
vn 0.9406 -0.2823 -0.1888
vn 0.4076 -0.1910 -0.8930
vn -0.9698 -0.0772 -0.2315
vn 0.2159 -0.8919 -0.3974
vn 0.0215 -0.8265 0.5626
vn 0.1968 -0.2829 0.9387
vn 0.1155 -0.9859 0.1211
vn 0.0464 -0.9939 -0.0998
vn 0.9552 0.1112 0.2744
vn 0.2960 0.1890 -0.9363
vn 0.2761 -0.0737 -0.9583
vn -0.7385 0.5609 -0.3742
vn 0.5245 0.4075 0.7475
vn -0.8112 0.5825 -0.0516
vn -0.3329 0.1434 -0.9320
vn 0.6537 -0.4473 0.6104
vn 0.9836 -0.0242 -0.1789
vn -0.1300 -0.2314 0.9641
vn -0.1645 0.5872 0.7926
vn -0.8153 0.3978 0.4208
vn 0.9936 -0.0914 0.0661
vn 0.9213 0.2448 -0.3021
vn 0.9809 0.0195 -0.1934
vn 0.1052 0.8041 -0.5851
vn 0.2802 0.9250 0.2566
vn 0.3116 0.8753 0.3699
vn 0.1963 0.9040 0.3798
vn 0.1128 0.9922 -0.0528
vn 0.5010 0.5794 0.6428
vn -0.3048 0.4068 -0.8612
vn -0.8168 0.4976 -0.2919
vn 0.6125 0.5997 0.5150
vt 0.625000 0.000000
vt 0.375000 0.250000
vt 0.375000 0.000000
vt 0.625000 0.250000
vt 0.375000 0.500000
vt 0.625000 0.750000
vt 0.125000 0.500000
vt 0.375000 0.750000
vt 0.125000 0.750000
vt 0.625000 0.500000
vt 0.375000 1.000000
vt 0.875000 0.750000
vt 0.625000 1.000000
vt 0.875000 0.500000
s 0
f 2/1/1 3/2/1 1/3/1
f 4/4/2 7/5/2 3/2/2
f 17/6/3 25/6/3 27/6/3
f 2/1/4 13/3/4 14/1/4
f 3/7/5 5/8/5 1/9/5
f 14/1/6 19/1/6 2/1/6
f 9/10/7 11/8/7 10/5/7
f 7/5/8 9/10/8 10/5/8
f 2/1/9 20/4/9 4/4/9
f 5/8/10 10/5/10 11/8/10
f 15/6/11 13/11/11 16/8/11
f 16/8/12 17/6/12 15/6/12
f 1/9/13 16/8/13 13/9/13
f 11/8/14 16/8/14 5/8/14
f 12/6/15 18/8/15 11/8/15
f 8/10/16 24/10/16 9/10/16
f 24/10/17 6/10/17 29/10/17
f 21/10/18 19/12/18 22/6/18
f 27/6/19 28/6/19 23/6/19
f 22/6/20 26/12/20 23/6/20
f 8/10/21 20/4/21 21/10/21
f 15/6/22 27/6/22 23/6/22
f 12/6/23 24/10/23 25/6/23
f 15/6/24 26/13/24 14/13/24
f 28/6/25 34/6/25 23/6/25
f 22/6/26 34/6/26 33/6/26
f 25/6/27 29/10/27 30/6/27
f 29/10/28 39/6/28 30/6/28
f 27/6/29 30/6/29 31/6/29
f 6/10/30 38/10/30 29/10/30
f 36/6/31 38/10/31 35/10/31
f 36/6/32 40/6/32 39/6/32
f 34/6/33 36/6/33 33/6/33
f 33/6/34 35/10/34 32/10/34
f 28/6/35 40/6/35 37/6/35
f 6/10/36 32/10/36 35/10/36
f 22/6/37 32/10/37 21/10/37
f 30/6/38 40/6/38 31/6/38
f 2/1/39 4/4/39 3/2/39
f 4/4/40 8/10/40 7/5/40
f 17/6/41 12/6/41 25/6/41
f 2/1/42 1/3/42 13/3/42
f 3/7/43 7/5/43 5/8/43
f 14/1/44 26/1/44 19/1/44
f 9/10/45 12/6/45 11/8/45
f 7/5/46 8/10/46 9/10/46
f 2/1/47 19/1/47 20/4/47
f 5/8/48 7/5/48 10/5/48
f 15/6/49 14/13/49 13/11/49
f 16/8/50 18/8/50 17/6/50
f 1/9/51 5/8/51 16/8/51
f 11/8/52 18/8/52 16/8/52
f 12/6/53 17/6/53 18/8/53
f 8/10/54 21/10/54 24/10/54
f 24/10/55 21/10/55 6/10/55
f 21/10/56 20/14/56 19/12/56
f 27/6/57 31/6/57 28/6/57
f 22/6/58 19/12/58 26/12/58
f 8/10/59 4/4/59 20/4/59
f 15/6/60 17/6/60 27/6/60
f 12/6/61 9/10/61 24/10/61
f 15/6/62 23/6/62 26/13/62
f 28/6/63 37/6/63 34/6/63
f 22/6/64 23/6/64 34/6/64
f 25/6/65 24/10/65 29/10/65
f 29/10/66 38/10/66 39/6/66
f 27/6/67 25/6/67 30/6/67
f 6/10/68 35/10/68 38/10/68
f 36/6/69 39/6/69 38/10/69
f 36/6/70 37/6/70 40/6/70
f 34/6/71 37/6/71 36/6/71
f 33/6/72 36/6/72 35/10/72
f 28/6/73 31/6/73 40/6/73
f 6/10/74 21/10/74 32/10/74
f 22/6/75 33/6/75 32/10/75
f 30/6/76 39/6/76 40/6/76
