# Blender 4.2.1 LTS
# www.blender.org
o Cube
v 0.571333 0.601291 -0.337971
v 0.566649 0.361834 -0.330224
v 0.825982 0.629924 0.368104
v 0.804587 0.302406 0.410773
v 0.036461 0.146202 -0.357354
v 0.036461 0.146202 0.410773
v -0.260812 0.604471 -0.855605
v -0.574430 0.146202 -0.200118
v 0.169721 0.608546 -0.747567
v 0.195530 0.604715 -0.678897
v -0.184534 0.877531 -0.761253
v -0.204870 0.285393 0.944720
v -0.278943 0.629924 1.181209
v 0.539827 0.499722 1.012521
v 0.399257 0.405380 0.849392
v -0.911229 0.146202 0.612987
v -0.954729 0.604123 0.618561
v -0.910210 0.786102 -0.906538
v -1.173186 0.524842 -0.462119
v -1.317359 0.763403 -0.477281
v -0.828529 0.994019 -0.978847
v -1.347522 0.435199 0.190756
v -1.217711 0.648288 0.084829
v -0.820901 1.043869 0.330461
v -1.263074 1.152250 -0.115302
v -1.232529 1.101805 0.135760
v -0.205603 0.996088 -0.609792
v 0.610854 0.796032 0.302684
v 0.405108 0.772897 -0.267797
v -0.916309 1.415034 -0.174115
v -1.233188 1.073226 -0.512053
v 0.101474 0.775663 -0.543252
v 0.379653 0.690834 0.823348
v -0.281882 0.796032 0.959641
v -0.827890 0.775185 0.505044
v -0.726053 1.298406 -0.586751
v -0.888472 1.094353 -0.874224
v -0.317340 1.097401 0.648887
v -0.417072 1.321991 0.327176
v -0.131396 1.359874 0.233413
v -0.265945 1.232196 -0.408579
v -0.719762 1.130483 0.272269
v -0.069280 1.306471 -0.113565
v -1.052342 1.177293 0.114959
v 0.096345 1.178429 -0.167636
v -0.195534 1.068194 -0.605481
v 0.466581 0.881936 0.399267
v 0.068425 1.165673 0.442136
v 0.415178 0.845003 -0.263485
v -0.906240 1.487140 -0.169803
v -1.223118 1.145332 -0.507742
v 0.111543 0.847769 -0.538941
v 0.328870 0.839602 0.754046
v -0.124339 0.885204 0.829072
v -0.817821 0.847291 0.509355
v -0.419829 1.201462 0.486487
v -0.878402 1.166459 -0.869913
v -0.160427 1.441520 0.205387
v -0.393022 1.554913 -0.180944
v -0.263519 1.551698 -0.065745
v -0.327038 1.514222 0.110621
v -0.709692 1.202590 0.276581
v -0.726595 1.368781 -0.451928
v -1.042272 1.249399 0.119270
v -0.612379 1.322750 0.185744
v -0.744810 1.514477 -0.115025
v -0.623768 1.434728 -0.305117
v -0.836468 1.354290 0.079750
v -0.674458 1.388386 -0.503575
v -0.276732 1.331154 -0.349561
v -0.321160 1.214634 0.564528
v -0.407370 1.408773 0.286437
v -0.106733 1.395358 -0.094546
v -0.488309 1.588877 -0.002233
v -0.576196 1.409430 0.164180
v -0.690671 1.575161 -0.095809
v -0.586040 1.506225 -0.260127
v -0.769901 1.436693 0.072558
v 0.620924 0.868138 0.306995
v 0.014380 1.241674 0.286225
v 0.389722 0.762940 0.827659
v -0.271812 0.868138 0.963952
v 0.326972 1.009215 0.497645
v 0.109718 1.086813 0.520003
v 0.284317 1.005945 0.673346
v 0.077120 0.973717 0.733004
vn -0.4708 0.7029 0.5332
vn -0.0000 -1.0000 -0.0000
vn 0.3767 -0.9263 -0.0000
vn 0.9447 -0.1023 -0.3116
vn -0.7468 0.2114 -0.6306
vn 0.3476 0.2180 -0.9120
vn 0.2328 0.2589 -0.9374
vn 0.3050 -0.6641 -0.6826
vn -0.5142 0.7652 0.3874
vn 0.6713 -0.0371 -0.7403
vn -0.1584 -0.7720 -0.6155
vn 0.2326 -0.5159 0.8245
vn -0.4164 -0.0506 0.9078
vn 0.2348 -0.9094 0.3432
vn -0.2186 0.7071 0.6725
vn 0.7385 0.0395 0.6731
vn -0.4430 -0.8646 -0.2370
vn -0.6438 -0.4293 -0.6334
vn -0.8562 -0.5145 0.0464
vn -0.1666 -0.7689 -0.6173
vn -0.9852 -0.0210 0.1703
vn 0.5832 0.6770 -0.4488
vn -0.7192 -0.0767 0.6906
vn 0.4916 0.7851 0.3769
vn 0.3258 0.7659 -0.5542
vn 0.6384 0.7246 -0.2596
vn -0.9612 0.2475 -0.1217
vn 0.0162 0.5445 0.8386
vn -0.4379 -0.1144 0.8917
vn 0.4890 0.6912 -0.5321
vn 0.2431 0.7777 0.5798
vn 0.9242 0.3661 0.1091
vn -0.6402 0.0435 0.7670
vn 0.9363 -0.1108 -0.3332
vn 0.9145 -0.1502 0.3757
vn -0.9638 0.1479 -0.2220
vn -0.7611 0.0677 0.6451
vn 0.1881 -0.0848 0.9785
vn 0.3618 0.0052 -0.9323
vn 0.6708 -0.0494 -0.7400
vn -0.9364 0.1497 -0.3175
vn -0.4269 0.0056 0.9043
vn -0.7212 0.1413 -0.6782
vn 0.2296 0.0261 -0.9729
vn 0.6575 0.7051 -0.2657
vn -0.4769 0.5786 0.6617
vn 0.0912 0.8829 -0.4605
vn 0.5661 0.6270 -0.5352
vn 0.1901 0.4904 0.8505
vn -0.3096 0.8007 0.5128
vn 0.4328 0.7627 -0.4805
vn -0.1412 0.7907 0.5957
vn -0.2242 0.6967 0.6814
vn -0.3953 0.7358 0.5498
vn 0.6312 0.7756 -0.0064
vn -0.0204 0.9173 -0.3978
vn -0.3643 0.8832 -0.2952
vn -0.5346 0.4074 0.7404
vn -0.9094 0.3912 0.1409
vn -0.5031 0.6346 -0.5866
vn -0.8221 0.3147 0.4745
vn 0.3739 0.5048 -0.7780
vn 0.6805 0.4425 0.5841
vn 0.7032 0.4192 -0.5743
vn 0.3200 0.7811 -0.5362
vn 0.2491 0.7999 0.5460
vn 0.2428 0.9274 0.2845
vn 0.0726 0.8282 0.5557
vn -0.2827 0.8741 0.3951
vn 0.2336 0.9306 0.2819
vn -0.2123 0.7183 0.6625
vn 0.0914 0.9377 -0.3352
vn 0.5486 0.6476 -0.5288
vn 0.1464 0.6427 -0.7520
vn -0.3562 0.3629 0.8611
vn -0.7612 0.6288 0.1589
vn 0.5835 0.7911 0.1834
vn 0.1806 0.7520 0.6339
vn 0.4398 0.6950 0.5688
vn 0.2623 0.9166 0.3017
vn 0.3438 0.9336 0.1008
vn 0.2072 0.7402 0.6397
vn 0.5402 0.7983 -0.2662
vn 0.9076 0.3532 0.2269
vn 0.0590 -0.9591 0.2767
vn 0.1973 -0.9701 -0.1412
vn 0.9407 -0.0293 -0.3381
vn -0.7226 0.1199 -0.6808
vn -0.0161 -0.3228 -0.9463
vn 0.5991 0.7798 -0.1817
vn 0.1878 -0.6646 -0.7233
vn -0.3542 0.9076 0.2255
vn 0.6660 0.7157 -0.2104
vn -0.0289 -0.8543 0.5190
vn -0.5188 -0.5568 0.6487
vn 0.1841 -0.9053 0.3827
vn 0.5122 -0.8571 0.0543
vn -0.4209 -0.8902 -0.1744
vn -0.7260 0.0466 -0.6861
vn -0.8770 0.4484 -0.1726
vn -0.2304 -0.7732 -0.5909
vn -0.9927 -0.0450 0.1117
vn -0.6877 0.6126 0.3895
vn 0.3241 0.7687 -0.5514
vn -0.6131 0.7646 -0.1985
vn -0.7582 0.5028 0.4152
vn 0.5248 0.8509 -0.0238
vn -0.5165 0.6187 0.5920
vn 0.5131 0.6513 -0.5590
vn 0.1767 0.4675 0.8661
vn 0.6117 0.7911 0.0002
vn -0.2995 0.7967 -0.5250
vn 0.3556 0.7101 0.6077
vn 0.7076 0.7063 0.0180
vn 0.0637 0.8427 0.5345
vn -0.1514 0.7110 0.6867
vn 0.1295 0.9845 -0.1181
vn -0.2949 0.8014 0.5203
vn -0.1369 0.9572 -0.2549
vn 0.5017 0.6716 -0.5452
vn 0.3109 0.8063 -0.5032
vn 0.4113 0.7004 0.5833
vn 0.2174 0.9101 0.3529
vn -0.2357 0.8389 0.4906
vn 0.5742 0.7565 0.3131
vn -0.0025 0.8834 0.4687
vn -0.1768 0.8803 0.4403
vn 0.3260 0.7452 0.5818
vn 0.7542 0.5502 0.3584
vt 0.546219 1.000000
vt 0.625000 1.000000
vt 0.125000 0.750000
vt 0.375000 0.500000
vt 0.125000 0.500000
vt 0.625000 0.750000
vt 0.425839 0.750000
vt 0.528094 0.000000
vt 0.609747 0.337389
vt 0.480911 0.337389
vt 0.480911 0.500000
vt 0.546219 0.000000
vt 0.625000 0.500000
vt 0.193385 0.502973
vt 0.425839 0.750000
vt 0.375000 1.000000
vt 0.375000 0.000000
vt 0.875000 0.750000
vt 0.875000 0.500000
vt 0.779050 0.503526
vt 0.669416 0.750000
vt 0.832000 0.750000
vt 0.875000 0.750000
vt 0.865920 0.761300
vt 0.665415 0.750000
vt 0.835529 0.750000
s 0
f 17/1/1 34/2/1 35/1/1
f 6/3/2 16/3/2 8/3/2
f 2/4/3 6/3/3 5/5/3
f 2/4/4 3/6/4 4/7/4
f 20/8/5 37/9/5 21/9/5
f 7/10/6 21/9/6 11/9/6
f 11/9/7 9/11/7 7/10/7
f 5/5/8 9/11/8 2/4/8
f 25/8/9 44/12/9 30/8/9
f 2/4/10 10/13/10 1/13/10
f 5/5/11 8/3/11 7/14/11
f 15/15/12 13/2/12 12/16/12
f 12/16/13 17/1/13 16/16/13
f 6/3/14 15/15/14 12/3/14
f 24/1/15 44/1/15 26/1/15
f 3/6/16 15/15/16 4/7/16
f 8/3/17 22/3/17 19/3/17
f 20/8/18 18/10/18 19/17/18
f 19/17/19 23/12/19 20/8/19
f 8/3/20 18/14/20 7/14/20
f 23/12/21 25/8/21 20/8/21
f 11/9/22 32/13/22 10/13/22
f 17/1/23 22/16/23 16/16/23
f 3/6/24 33/6/24 14/6/24
f 21/9/25 27/9/25 11/9/25
f 1/13/26 28/6/26 3/6/26
f 25/8/27 31/8/27 20/8/27
f 24/1/28 35/1/28 42/1/28
f 23/1/29 24/1/29 26/1/29
f 10/13/30 29/13/30 1/13/30
f 13/2/31 33/6/31 34/2/31
f 40/18/32 73/19/32 58/18/32
f 34/2/33 55/1/33 35/1/33
f 28/6/34 49/13/34 79/6/34
f 28/6/35 81/6/35 33/6/35
f 42/1/36 55/1/36 62/1/36
f 30/8/37 51/8/37 31/8/37
f 34/2/38 81/6/38 82/2/38
f 27/9/39 57/9/39 46/9/39
f 29/13/40 52/13/40 49/13/40
f 30/8/41 64/12/41 50/8/41
f 42/1/42 64/1/42 44/1/42
f 37/9/43 51/8/43 57/9/43
f 27/9/44 52/13/44 32/13/44
f 45/19/45 79/6/45 49/13/45
f 55/1/46 56/2/46 62/1/46
f 63/9/47 36/9/47 57/9/47
f 45/19/48 52/13/48 46/20/48
f 53/21/49 86/22/49 54/22/49
f 50/8/50 68/12/50 66/8/50
f 45/19/51 41/20/51 43/19/51
f 56/2/52 38/2/52 39/2/52
f 62/1/53 68/1/53 64/1/53
f 62/1/54 39/2/54 65/1/54
f 80/18/55 43/19/55 40/18/55
f 50/8/56 67/9/56 63/9/56
f 51/8/57 63/9/57 57/9/57
f 39/2/58 75/1/58 65/1/58
f 67/9/59 69/9/59 36/9/59
f 66/8/60 77/9/60 67/9/60
f 39/2/61 71/2/61 72/2/61
f 41/9/62 69/9/62 70/9/62
f 40/18/63 71/18/63 38/18/63
f 43/19/64 70/20/64 73/19/64
f 46/9/65 36/9/65 41/9/65
f 80/18/66 38/18/66 82/18/66
f 58/18/67 60/19/67 61/18/67
f 58/18/68 72/18/68 71/18/68
f 61/18/69 75/23/69 72/18/69
f 60/19/70 74/24/70 61/18/70
f 74/24/71 78/23/71 75/23/71
f 74/24/72 77/20/72 76/24/72
f 70/20/73 60/19/73 73/19/73
f 70/9/74 77/9/74 59/9/74
f 65/1/75 78/1/75 68/1/75
f 66/8/76 78/12/76 76/8/76
f 47/25/77 80/18/77 48/26/77
f 54/22/78 81/6/78 53/21/78
f 54/22/79 80/18/79 82/18/79
f 47/25/80 81/6/80 79/6/80
f 84/26/81 85/21/81 83/25/81
f 54/22/82 84/26/82 48/26/82
f 48/26/83 83/25/83 47/25/83
f 53/21/84 83/25/84 85/21/84
f 17/1/1 13/2/1 34/2/1
f 6/3/85 12/3/85 16/3/85
f 2/4/86 4/7/86 6/3/86
f 2/4/87 1/13/87 3/6/87
f 20/8/88 31/8/88 37/9/88
f 7/10/89 18/10/89 21/9/89
f 11/9/90 10/13/90 9/11/90
f 5/5/91 7/14/91 9/11/91
f 25/8/92 26/12/92 44/12/92
f 2/4/93 9/11/93 10/13/93
f 5/5/2 6/3/2 8/3/2
f 15/15/94 14/6/94 13/2/94
f 12/16/95 13/2/95 17/1/95
f 6/3/96 4/7/96 15/15/96
f 24/1/15 42/1/15 44/1/15
f 3/6/97 14/6/97 15/15/97
f 8/3/98 16/3/98 22/3/98
f 20/8/99 21/9/99 18/10/99
f 19/17/100 22/17/100 23/12/100
f 8/3/101 19/3/101 18/14/101
f 23/12/102 26/12/102 25/8/102
f 11/9/22 27/9/22 32/13/22
f 17/1/103 23/1/103 22/16/103
f 3/6/24 28/6/24 33/6/24
f 21/9/104 37/9/104 27/9/104
f 1/13/26 29/13/26 28/6/26
f 25/8/105 30/8/105 31/8/105
f 24/1/28 17/1/28 35/1/28
f 23/1/106 17/1/106 24/1/106
f 10/13/30 32/13/30 29/13/30
f 13/2/31 14/6/31 33/6/31
f 40/18/32 43/19/32 73/19/32
f 34/2/33 82/2/33 55/1/33
f 28/6/34 29/13/34 49/13/34
f 28/6/35 79/6/35 81/6/35
f 42/1/36 35/1/36 55/1/36
f 30/8/37 50/8/37 51/8/37
f 34/2/38 33/6/38 81/6/38
f 27/9/39 37/9/39 57/9/39
f 29/13/40 32/13/40 52/13/40
f 30/8/41 44/12/41 64/12/41
f 42/1/42 62/1/42 64/1/42
f 37/9/43 31/8/43 51/8/43
f 27/9/44 46/9/44 52/13/44
f 45/19/107 80/18/107 79/6/107
f 55/1/108 82/2/108 56/2/108
f 63/9/47 67/9/47 36/9/47
f 45/19/109 49/13/109 52/13/109
f 53/21/110 85/21/110 86/22/110
f 50/8/50 64/12/50 68/12/50
f 45/19/51 46/20/51 41/20/51
f 56/2/52 82/2/52 38/2/52
f 62/1/53 65/1/53 68/1/53
f 62/1/54 56/2/54 39/2/54
f 80/18/111 45/19/111 43/19/111
f 50/8/56 66/8/56 67/9/56
f 51/8/112 50/8/112 63/9/112
f 39/2/58 72/2/58 75/1/58
f 67/9/59 77/9/59 69/9/59
f 66/8/60 76/8/60 77/9/60
f 39/2/61 38/2/61 71/2/61
f 41/9/62 36/9/62 69/9/62
f 40/18/63 58/18/63 71/18/63
f 43/19/64 41/20/64 70/20/64
f 46/9/65 57/9/65 36/9/65
f 80/18/113 40/18/113 38/18/113
f 58/18/114 73/19/114 60/19/114
f 58/18/115 61/18/115 72/18/115
f 61/18/116 74/24/116 75/23/116
f 60/19/117 59/20/117 74/24/117
f 74/24/118 76/24/118 78/23/118
f 74/24/119 59/20/119 77/20/119
f 70/20/120 59/20/120 60/19/120
f 70/9/121 69/9/121 77/9/121
f 65/1/75 75/1/75 78/1/75
f 66/8/76 68/12/76 78/12/76
f 47/25/122 79/6/122 80/18/122
f 54/22/123 82/18/123 81/6/123
f 54/22/124 48/26/124 80/18/124
f 47/25/125 53/21/125 81/6/125
f 84/26/126 86/22/126 85/21/126
f 54/22/127 86/22/127 84/26/127
f 48/26/128 84/26/128 83/25/128
f 53/21/129 47/25/129 83/25/129
