# Blender 4.2.1 LTS
# www.blender.org
o Icosphere
v -0.068161 2.388056 -0.051833
v -0.401342 -0.981798 0.141392
v -0.550320 -0.821963 -0.414569
v -0.321965 -0.995436 -0.206330
v 0.083176 -0.870809 -0.528602
v 0.261286 -0.983999 -0.070803
v 0.383139 -0.687102 0.607965
v 0.850983 -0.407428 0.314726
v -0.657797 -0.062105 0.765970
v -0.821480 -0.600072 0.295598
v -0.114838 0.587230 0.873270
v -0.651102 -0.407448 -0.660391
v -1.327258 -0.680169 -0.065003
v -0.990786 0.979442 -0.254442
v 0.955092 0.004569 -0.242135
v -1.460496 1.481524 0.232868
v -0.665891 1.208901 -0.611228
v -0.441428 2.738369 0.122717
v 0.379169 2.080175 0.433588
v 1.441008 1.696376 -0.035424
v 0.805051 1.246227 -0.360648
v 0.798887 2.035281 0.178839
v 1.481063 1.608436 0.056458
v 0.738582 1.173332 0.457583
v 0.948983 1.073483 -0.069515
v 0.955473 1.111342 0.222653
v 0.350464 2.157297 -0.324297
v 0.728634 1.550308 -0.456681
v 0.035741 1.688074 -0.731889
v -0.510341 2.287506 -0.304246
v -0.204119 2.084453 -0.588654
v -0.704018 1.849098 -0.401453
v -0.335537 1.550144 -0.736170
v -0.483941 2.754050 -0.092485
v -0.805899 2.048707 -0.106028
v -1.111268 1.580303 0.266767
v -0.272450 2.347694 0.372367
v -0.018395 1.939903 0.636823
v 0.431475 1.052567 0.737678
v 0.971925 0.003297 0.283730
v 0.924848 0.770378 0.074955
v 0.417625 0.053673 -0.698639
v -0.414277 -0.212683 -0.897875
v -0.761439 0.041409 -0.670539
v -1.500501 0.591474 0.136712
v -1.076549 0.967250 0.178905
v -1.358628 -0.698642 0.130665
v -0.904566 0.623727 0.486941
v -0.809121 1.219912 0.500957
v -0.889415 -0.186412 0.466837
v -0.333038 1.332811 0.808055
v 0.917134 -0.441039 -0.095793
v 0.573228 -0.510286 -0.624863
v -0.088716 -0.382341 -0.916586
v -1.184762 0.214826 0.069565
v -0.929811 -0.225772 -0.381822
v -0.918026 -0.786217 -0.080668
v 0.596161 0.220653 0.645627
v 0.694571 -0.705643 0.245851
v 0.641931 -0.745334 -0.305332
v 0.211059 -0.626548 -0.769732
v -0.317004 -0.609911 -0.743214
v -0.737007 -1.171427 -0.176270
v 0.122201 -0.935708 0.394350
v -0.570103 -0.507153 0.637462
v -0.266202 -0.832388 0.486294
vn 0.0329 -0.9931 0.1129
vn 0.0100 -0.9991 0.0415
vn -0.4489 -0.4175 -0.7901
vn 0.9822 0.1037 -0.1568
vn 0.2859 0.9063 0.3113
vn 0.5946 0.2558 0.7622
vn 0.5296 0.7162 0.4545
vn 0.5229 0.2290 0.8211
vn 0.3308 0.2693 0.9045
vn 0.5963 -0.4340 -0.6753
vn 0.6434 -0.4753 -0.6001
vn 0.6093 -0.4192 0.6731
vn 0.6978 -0.7121 0.0768
vn 0.6390 -0.3533 0.6832
vn 0.9963 -0.0847 -0.0112
vn 0.7530 -0.3310 -0.5687
vn 0.4053 0.9031 -0.1422
vn 0.4195 0.8941 -0.1570
vn 0.5246 -0.1337 -0.8408
vn 0.3950 0.4239 -0.8150
vn 0.4058 0.4289 -0.8071
vn 0.3802 0.0701 -0.9222
vn 0.3225 0.4882 -0.8110
vn 0.1143 0.8378 -0.5339
vn 0.1194 0.8643 -0.4886
vn -0.4773 0.3859 -0.7895
vn -0.0955 0.2867 -0.9533
vn -0.4660 0.3401 -0.8168
vn -0.5443 0.2318 -0.8062
vn -0.7172 0.4372 -0.5427
vn 0.6630 0.7447 -0.0767
vn 0.3994 0.3601 -0.8431
vn -0.6949 0.3295 -0.6392
vn -0.8918 0.4031 0.2055
vn -0.8668 0.4896 -0.0949
vn -0.4250 0.3497 0.8349
vn -0.3630 0.2743 0.8905
vn -0.9294 0.0638 -0.3636
vn -0.6377 0.3162 -0.7024
vn -0.2624 0.6998 0.6643
vn 0.7196 0.5672 0.4005
vn -0.5648 0.3538 0.7455
vn 0.3470 0.9031 0.2530
vn 0.1785 0.6112 0.7711
vn -0.2812 0.3927 0.8756
vn 0.3560 0.2818 0.8910
vn 0.1591 0.1908 0.9687
vn 0.6463 -0.1336 0.7513
vn 0.6626 0.0485 0.7474
vn 0.7037 0.0349 0.7097
vn 0.9406 0.1417 0.3086
vn 0.9981 0.0526 -0.0318
vn 0.8592 0.0553 -0.5087
vn 0.7047 0.0048 -0.7095
vn 0.5172 0.0308 -0.8553
vn -0.0106 0.0895 -0.9959
vn -0.0228 0.0923 -0.9955
vn -0.4419 0.1015 -0.8913
vn -0.5017 0.0848 -0.8609
vn -0.6242 -0.1707 -0.7624
vn -0.7657 0.0950 -0.6362
vn -0.4685 -0.2413 -0.8499
vn -0.2534 -0.9584 -0.1311
vn -0.7317 -0.0233 -0.6813
vn -0.6534 0.7493 -0.1082
vn -0.7977 -0.5773 -0.1741
vn -0.9744 0.1761 -0.1396
vn -0.0550 -0.1447 0.9879
vn -0.4219 -0.4897 0.7630
vn -0.4713 0.4463 0.7608
vn -0.8069 0.1156 0.5793
vn -0.7052 -0.1396 0.6951
vn -0.6945 0.1788 0.6969
vn -0.8162 -0.0296 0.5769
vn 0.0308 -0.8990 0.4368
vn -0.6354 0.0837 0.7676
vn -0.5565 0.1047 0.8242
vn -0.2184 0.0214 0.9756
vn 0.1366 0.1259 0.9826
vn 0.9480 -0.2660 0.1745
vn 0.9949 -0.0953 -0.0321
vn 0.8540 -0.4890 0.1777
vn 0.8284 -0.2372 -0.5074
vn 0.3487 0.0625 -0.9351
vn 0.3761 -0.0174 -0.9264
vn 0.4184 -0.0322 -0.9077
vn -0.2615 -0.4051 -0.8761
vn -0.8671 0.0089 -0.4981
vn -0.8672 0.0084 -0.4980
vn -0.7465 0.2136 -0.6301
vn -0.7547 -0.1997 -0.6249
vn -0.1551 -0.4701 -0.8689
vn -0.7598 -0.4583 -0.4613
vn -0.6434 -0.3728 -0.6686
vn -0.7842 -0.0300 0.6197
vn 0.0343 -0.1908 0.9810
vn -0.2004 -0.4026 0.8932
vn -0.6484 -0.3796 0.6598
vn -0.7198 -0.3198 0.6162
vn -0.0235 -0.2816 0.9592
vn 0.2809 -0.0505 0.9584
vn 0.2563 -0.1000 0.9614
vn 0.5950 -0.1722 0.7851
vn 0.7496 -0.6614 -0.0240
vn 0.5355 -0.8445 0.0097
vn 0.7922 -0.3977 -0.4629
vn 0.3353 -0.8759 -0.3470
vn 0.4510 -0.6699 -0.5898
vn 0.3856 -0.7425 -0.5477
vn -0.0580 -0.6858 -0.7255
vn -0.0591 -0.5667 -0.8218
vn 0.0813 -0.9597 -0.2689
vn -0.1588 -0.8372 -0.5233
vn -0.1703 -0.7685 -0.6168
vn -0.4921 -0.5294 -0.6910
vn 0.2106 -0.6250 -0.7516
vn -0.6732 -0.1360 -0.7268
vn 0.3950 -0.9100 0.1259
vn 0.6536 -0.4783 0.5866
vn 0.4298 -0.8041 0.4108
vn 0.4117 -0.8856 0.2151
vn 0.0048 -0.6546 0.7560
vn -0.7713 -0.4692 0.4300
vn -0.5824 -0.5671 0.5824
vn -0.1909 -0.7409 0.6439
vn -0.5032 -0.7035 0.5019
vn -0.1330 -0.8894 0.4374
vn -0.0608 -0.4669 0.8822
vt 0.181819 0.000000
vt 0.204270 0.041779
vt 0.159550 0.065829
vt 0.909091 0.000000
vt 0.938511 0.050957
vt 0.907771 0.057006
vt 0.811186 0.132006
vt 0.859746 0.174390
vt 0.803895 0.202407
vt 0.491943 0.313054
vt 0.548518 0.237758
vt 0.586298 0.349214
vt 0.413388 0.401094
vt 0.442576 0.406283
vt 0.439003 0.445468
vt 0.365338 0.323576
vt 0.418478 0.335694
vt 0.462788 0.363368
vt 0.472233 0.380643
vt 0.498456 0.336521
vt 0.525250 0.349918
vt 0.454597 0.334604
vt 0.613637 0.433017
vt 0.652222 0.409138
vt 0.640423 0.461739
vt 0.594245 0.399428
vt 0.618066 0.357822
vt 0.686246 0.367980
vt 0.676542 0.230500
vt 0.766782 0.352396
vt 0.802633 0.372213
vt 0.786777 0.414554
vt 0.863367 0.385412
vt 0.832958 0.439000
vt 0.881219 0.342389
vt 0.813372 0.328597
vt 0.869167 0.298986
vt 0.024665 0.342389
vt 0.076864 0.344861
vt 0.045437 0.384783
vt 0.102977 0.386017
vt 0.126231 0.377071
vt 0.088910 0.444387
vt 0.112681 0.321261
vt 0.145046 0.369323
vt 0.143687 0.312980
vt 0.029796 0.314921
vt 0.081434 0.314921
vt 0.229161 0.396920
vt 0.238137 0.383111
vt 0.261031 0.441516
vt 0.193490 0.335137
vt 0.238415 0.316032
vt 0.303494 0.383581
vt 0.266896 0.353956
vt 0.335421 0.329429
vt 0.464242 0.170666
vt 0.479074 0.241255
vt 0.385753 0.244140
vt 0.629739 0.153019
vt 0.751883 0.180532
vt 0.865933 0.234579
vt 0.922105 0.281333
vt 0.069737 0.255874
vt 0.069806 0.275556
vt 0.039217 0.292861
vt 0.092758 0.154260
vt 0.080268 0.217548
vt 0.055949 0.218015
vt 0.093097 0.295238
vt 0.127291 0.268767
vt 0.136433 0.214414
vt 0.118426 0.163421
vt 0.183585 0.226261
vt 0.280998 0.264748
vt 0.471219 0.168002
vt 0.532188 0.173570
vt 0.492030 0.119518
vt 0.714128 0.139367
vt 0.794331 0.134826
vt 0.936846 0.255874
vt 0.914392 0.207465
vt 0.961570 0.211944
vt 0.976262 0.157663
vt 0.887092 0.111899
vt 0.286098 0.126887
vt 0.182601 0.161232
vt 0.365141 0.124985
vt 0.572187 0.112802
vt 0.545453 0.059598
vt 0.590910 0.078731
vt 0.664770 0.108260
vt 0.652088 0.149095
vt 0.726680 0.087023
vt 0.706531 0.038628
vt 0.745790 0.032073
vt 0.772727 0.078731
vt 0.959900 0.107497
vt 0.415329 0.104089
vt 0.352220 0.067859
vt 0.385420 0.037730
vt 0.318182 0.078731
vt 0.121604 0.104922
vt 0.200168 0.091228
s 0
f 6/1/1 64/2/1 2/3/1
f 6/4/2 2/5/2 4/6/2
f 62/7/3 12/8/3 43/9/3
f 41/10/4 15/11/4 21/12/4
f 19/13/5 22/14/5 1/15/5
f 39/16/6 24/17/6 19/13/6
f 23/18/7 20/19/7 22/14/7
f 19/13/8 24/17/8 22/14/8
f 22/14/9 24/17/9 23/18/9
f 23/18/10 25/20/10 20/19/10
f 20/19/11 25/20/11 21/21/11
f 24/17/12 26/22/12 23/18/12
f 26/22/13 25/20/13 23/18/13
f 24/17/14 41/10/14 26/22/14
f 26/22/15 41/10/15 25/20/15
f 25/20/16 41/10/16 21/21/16
f 22/23/17 27/24/17 1/25/17
f 20/26/18 27/24/18 22/23/18
f 21/12/19 28/27/19 20/26/19
f 20/26/20 28/27/20 27/24/20
f 28/27/21 29/28/21 27/24/21
f 28/27/22 42/29/22 29/28/22
f 29/30/23 31/31/23 27/32/23
f 27/32/24 30/33/24 1/34/24
f 27/32/25 31/31/25 30/33/25
f 31/31/26 32/35/26 30/33/26
f 29/30/27 33/36/27 31/31/27
f 33/36/28 32/35/28 31/31/28
f 33/36/29 17/37/29 32/35/29
f 32/38/30 35/39/30 30/40/30
f 34/41/31 18/42/31 1/43/31
f 30/40/32 34/41/32 1/43/32
f 30/40/33 35/39/33 34/41/33
f 35/39/34 18/42/34 34/41/34
f 35/39/35 36/44/35 18/42/35
f 18/42/36 36/44/36 37/45/36
f 37/45/37 36/44/37 49/46/37
f 32/38/38 17/47/38 35/39/38
f 17/47/39 16/48/39 35/39/39
f 35/39/40 16/48/40 36/44/40
f 18/49/41 37/50/41 1/51/41
f 49/52/42 51/53/42 37/50/42
f 37/50/43 19/54/43 1/51/43
f 38/55/44 19/54/44 37/50/44
f 51/53/45 38/55/45 37/50/45
f 38/55/46 39/56/46 19/54/46
f 51/53/47 39/16/47 38/55/47
f 8/57/48 40/58/48 58/59/48
f 58/59/49 24/17/49 39/16/49
f 58/59/50 40/58/50 24/17/50
f 40/58/51 41/10/51 24/17/51
f 40/58/52 15/11/52 41/10/52
f 15/11/53 28/27/53 21/12/53
f 15/11/54 53/60/54 28/27/54
f 53/60/55 42/29/55 28/27/55
f 54/61/56 43/9/56 29/28/56
f 43/9/57 33/36/57 29/28/57
f 43/9/58 17/37/58 33/36/58
f 43/9/59 44/62/59 17/37/59
f 12/8/60 44/62/60 43/9/60
f 44/62/61 14/63/61 17/37/61
f 55/64/62 45/65/62 14/66/62
f 57/67/63 47/68/63 13/69/63
f 14/66/64 16/48/64 17/47/64
f 45/65/65 46/70/65 14/66/65
f 14/66/66 46/70/66 16/48/66
f 13/69/67 47/68/67 55/64/67
f 46/70/68 36/44/68 16/48/68
f 55/64/69 48/71/69 45/65/69
f 45/65/70 48/71/70 46/70/70
f 48/71/71 49/46/71 46/70/71
f 46/70/72 49/46/72 36/44/72
f 47/68/73 50/72/73 55/64/73
f 50/72/74 48/71/74 55/64/74
f 57/67/75 10/73/75 47/68/75
f 48/71/76 9/74/76 49/46/76
f 9/74/77 51/53/77 49/46/77
f 9/74/78 11/75/78 51/53/78
f 11/75/79 39/16/79 51/53/79
f 8/76/80 52/77/80 40/58/80
f 40/58/81 52/77/81 15/11/81
f 8/76/82 59/78/82 52/77/82
f 52/77/83 53/60/83 15/11/83
f 42/29/84 54/61/84 29/28/84
f 53/60/85 61/79/85 42/29/85
f 42/29/86 61/79/86 54/61/86
f 54/61/87 62/80/87 43/9/87
f 44/62/88 55/81/88 14/63/88
f 44/62/89 56/82/89 55/81/89
f 56/82/90 13/83/90 55/81/90
f 44/62/91 12/8/91 56/82/91
f 56/82/92 57/84/92 13/83/92
f 12/8/93 3/85/93 56/82/93
f 3/85/94 57/84/94 56/82/94
f 50/72/95 9/74/95 48/71/95
f 9/74/96 7/86/96 11/75/96
f 47/68/97 10/73/97 50/72/97
f 50/72/98 10/73/98 9/74/98
f 10/73/99 65/87/99 9/74/99
f 65/87/100 7/86/100 9/74/100
f 11/75/101 58/59/101 39/16/101
f 11/75/102 7/88/102 58/59/102
f 7/88/103 8/57/103 58/59/103
f 60/89/104 52/77/104 59/78/104
f 6/90/105 60/89/105 59/78/105
f 60/89/106 53/60/106 52/77/106
f 6/90/107 5/91/107 60/89/107
f 60/92/108 61/79/108 53/93/108
f 60/92/109 5/94/109 61/79/109
f 5/94/110 62/80/110 61/79/110
f 61/79/111 62/80/111 54/61/111
f 6/95/112 4/96/112 5/94/112
f 4/96/113 3/97/113 5/94/113
f 3/97/114 62/80/114 5/94/114
f 62/7/115 3/85/115 12/8/115
f 4/6/116 63/98/116 3/85/116
f 3/85/117 63/98/117 57/84/117
f 2/5/118 63/98/118 4/6/118
f 7/88/119 59/99/119 8/57/119
f 7/88/120 64/100/120 59/99/120
f 64/100/121 6/101/121 59/99/121
f 7/88/122 66/102/122 64/100/122
f 57/67/123 63/103/123 10/73/123
f 63/103/124 65/87/124 10/73/124
f 2/3/125 65/87/125 63/103/125
f 2/3/126 66/104/126 65/87/126
f 2/3/127 64/2/127 66/104/127
f 66/104/128 7/86/128 65/87/128
