# Blender 4.2.1 LTS
# www.blender.org
o Icosphere.001
v 1.803550 -19.679222 -2.277375
v 1.882113 -22.406292 -2.526278
v 2.745177 -20.990623 -1.735316
v 1.472013 -15.701660 -2.607802
v 1.627194 -17.095013 -1.613233
v 2.404332 -18.116972 -0.455051
v 2.810866 -22.171690 -1.106070
v 0.848127 -22.336777 -0.638534
v 0.164590 -21.183512 -1.798795
v 0.706375 -20.235573 -2.272345
v 0.048817 -14.159786 -1.326863
v -0.361635 -14.353823 -0.310381
v 0.611578 -1.501956 -1.176705
v 0.914216 -0.414278 -0.245603
v 0.654082 0.311301 0.476114
v 0.360506 -0.773630 1.427570
v 1.883055 -21.187952 1.166461
v -0.027929 -22.378710 -1.128464
v 1.134107 -23.989923 0.423133
v -0.021977 -21.917137 0.672690
v 0.611136 -12.846155 1.260067
v 0.532961 -22.781839 1.031684
v 0.806064 -23.742807 0.811843
v 1.328723 -22.114983 1.309774
v 1.661245 -23.358881 1.007749
v 1.347451 -23.574728 0.203422
v 0.320622 -20.112595 1.165595
v 0.970189 -19.794313 1.423095
v 0.022189 -13.951424 0.887671
v -0.227273 -16.274548 0.220284
v -0.299944 -12.876680 0.584091
v -0.833489 -5.000211 1.383199
v -0.220230 -21.468332 -0.252226
v 0.110459 -23.342543 0.249260
v 0.427202 -23.859873 0.108151
v 0.520583 -23.470961 -0.562935
v 0.533798 -23.008690 -1.365860
v 2.213406 -22.859789 -0.192866
v 2.139156 -23.280521 0.429731
v 2.017368 -23.145451 0.799804
v 1.829534 -14.554394 0.916696
v 1.296786 -13.186363 1.229311
v 2.257229 -15.362267 0.251400
v 1.140932 -5.147220 1.553423
v -0.510137 -1.859057 1.599242
v -0.944383 -0.371158 1.082336
v 0.282213 5.507435 0.925467
v -1.466777 -3.887443 0.787415
v -0.163867 3.970963 -0.113530
v -0.847604 3.740048 -0.043702
v -1.464325 -1.390938 -0.058371
v -1.357217 -6.925886 -0.112125
v -1.453627 -4.825841 -0.727565
v -0.751479 -1.512396 -1.286386
v -0.074551 -2.101150 -2.723732
v 0.012058 -17.928387 -1.065735
v 0.340328 -22.700523 -1.761490
v 1.331490 -22.721279 -2.403244
v 0.984951 -22.673008 -1.628270
v 0.854910 -22.269772 -0.937652
v 2.451952 -21.183506 0.607647
v 2.798656 -21.892483 -0.180074
v 2.446921 -18.537029 0.179452
v 0.191258 -4.951971 1.771123
v 1.890382 -7.100944 0.987359
v 1.401777 -1.979950 0.786872
v 2.334622 -8.145511 -0.047722
v 1.675094 -3.953546 -0.734363
v -0.669495 -9.735552 -1.329829
v -0.599551 -6.137086 -1.734417
v -0.031147 -4.072036 -2.176384
v -0.206426 -9.728895 -1.738266
v 0.047978 -7.207867 -2.166490
v 0.538216 -6.221617 -3.196363
v 0.268626 -9.356842 -3.116988
v 0.562290 -4.659747 -1.719586
v 0.674265 -21.820316 -2.394289
v 1.049051 -22.702402 -2.459753
v 1.809857 -22.117065 -1.452455
v 2.556681 -22.328434 -1.034452
v 2.468007 -22.213705 -2.012846
v 2.072929 -18.463430 -1.535363
v 2.141312 -16.607185 -0.806264
v 1.916104 -8.985220 -1.291916
v 1.935160 -14.858370 -1.070087
v 1.226466 -5.453237 -1.515806
v 1.430016 -11.476357 -1.654776
v 1.453942 -14.039886 -1.513492
v 0.943749 -10.772966 -1.916654
v 0.512693 -6.799560 -2.014772
v 1.189707 -13.094465 -2.060061
v 0.568830 -10.872223 -1.937763
v 0.857015 -12.660597 -2.815006
v 0.470042 -12.255030 -1.826937
v 1.033412 -14.191410 -1.669465
v 1.312189 -17.148357 -1.767318
v 1.714451 -18.373796 -2.775122
v 0.597664 -17.818830 -1.723091
v 1.290462 -19.358152 -2.258292
v 2.927201 -21.407530 -1.027366
v 2.317733 -21.777195 -2.378291
v 2.367404 -20.448177 -2.096564
v 1.854127 -21.575174 -2.661721
v 1.329957 -21.401064 -2.670947
vn -0.7675 -0.2470 0.5915
vn -0.7020 -0.3424 0.6244
vn -0.6930 -0.5511 0.4648
vn -0.1222 -0.2542 0.9594
vn -0.3053 -0.8990 0.3139
vn -0.1029 -0.2606 0.9599
vn 0.1901 -0.7480 0.6359
vn 0.5066 -0.5920 -0.6268
vn -0.6351 -0.0890 0.7673
vn -0.3360 -0.0738 0.9390
vn -0.2625 -0.0875 0.9610
vn -0.3697 0.0027 0.9292
vn 0.0579 0.0264 0.9980
vn 0.0131 -0.0639 0.9979
vn -0.5492 0.0111 0.8356
vn -0.8004 -0.0117 0.5993
vn -0.9313 -0.0047 0.3643
vn -0.8111 -0.0794 0.5795
vn -0.9915 -0.0347 0.1256
vn -0.4072 -0.0892 0.9089
vn -0.8507 -0.1098 0.5141
vn -0.3497 -0.0790 0.9335
vn -0.7805 -0.1152 0.6145
vn -0.9512 -0.1298 0.2800
vn -0.9313 -0.1339 0.3387
vn -0.9795 -0.0196 0.2005
vn -0.9787 0.0173 -0.2043
vn -0.9935 -0.0890 -0.0705
vn -0.9803 -0.1342 0.1450
vn -0.9831 -0.1809 -0.0278
vn 0.0606 -0.8673 -0.4942
vn -0.8561 -0.4599 -0.2357
vn -0.8454 -0.4706 -0.2526
vn 0.0267 -0.8665 -0.4984
vn -0.2937 -0.8184 -0.4939
vn 0.9475 -0.2835 -0.1476
vn 0.9279 -0.3677 -0.0613
vn 0.6448 -0.2347 -0.7275
vn -0.0744 -0.9371 -0.3409
vn -0.1272 -0.8145 -0.5661
vn 0.0652 -0.5431 -0.8372
vn 0.4161 -0.5831 -0.6978
vn 0.5403 -0.7686 0.3425
vn 0.4225 -0.7736 -0.4724
vn 0.6366 -0.6330 0.4405
vn -0.1254 -0.8150 -0.5657
vn 0.3863 -0.8197 -0.4229
vn 0.9530 0.0502 0.2989
vn 0.4149 -0.1084 0.9034
vn 0.2610 -0.0068 0.9653
vn 0.7003 0.0325 0.7132
vn 0.2900 0.0137 0.9569
vn 0.5720 0.0355 0.8195
vn 0.8708 0.0590 0.4881
vn 0.2164 -0.0351 0.9757
vn 0.2366 0.0701 0.9691
vn 0.0989 0.0776 0.9921
vn -0.3527 -0.0280 0.9353
vn 0.7376 0.3213 0.5939
vn 0.0953 0.0805 0.9922
vn 0.9416 0.0385 0.3344
vn -0.5347 0.1338 0.8344
vn -0.6685 0.0177 0.7435
vn -0.6990 0.0440 0.7138
vn 0.8476 0.1056 -0.5201
vn 0.9657 0.2340 0.1128
vn -0.2773 0.5921 -0.7566
vn -0.7874 0.1800 0.5896
vn -0.9382 0.1118 0.3276
vn -0.9382 0.1119 0.3276
vn 0.8240 0.2183 -0.5229
vn -1.0000 -0.0016 -0.0077
vn -0.9990 -0.0410 0.0167
vn -0.1735 0.2237 -0.9591
vn 0.8603 0.2120 -0.4636
vn -0.8556 0.1043 -0.5070
vn -0.8542 0.1947 -0.4820
vn -0.9070 -0.1475 -0.3944
vn -0.9260 -0.0171 -0.3772
vn -0.9740 0.0119 -0.2262
vn -0.9667 0.0123 -0.2557
vn -0.7512 0.1140 -0.6502
vn -0.7561 0.1099 -0.6452
vn -0.4180 -0.8044 -0.4221
vn -0.0095 -0.9617 -0.2738
vn 0.6865 -0.5642 0.4587
vn 0.6811 -0.6459 0.3448
vn 0.9164 -0.3798 0.1266
vn 0.5521 -0.1168 0.8256
vn 0.6986 -0.0851 0.7105
vn 0.8878 -0.2529 0.3845
vn 0.8537 -0.1400 0.5017
vn 0.9859 -0.1563 0.0601
vn 0.9323 0.0595 0.3568
vn 0.9774 0.0816 0.1950
vn 0.4532 -0.0271 0.8910
vn 0.5818 -0.0125 0.8133
vn 0.6273 0.1340 0.7672
vn 0.7486 0.0971 0.6559
vn 0.8344 -0.0120 0.5510
vn 0.9212 0.0062 0.3891
vn 0.9474 0.1023 0.3034
vn 0.9492 0.3134 0.0270
vn 0.9675 0.2242 -0.1170
vn 0.9881 0.1522 -0.0199
vn 0.7986 0.2474 -0.5486
vn 0.9956 -0.0145 -0.0921
vn 0.6817 0.1672 -0.7123
vn -0.9569 -0.1212 -0.2637
vn -0.9581 -0.1212 -0.2596
vn -0.8567 0.0961 -0.5068
vn -0.7943 -0.0526 -0.6053
vn -0.7346 0.0415 -0.6772
vn -0.7096 0.0448 -0.7032
vn -0.9164 -0.1257 -0.3801
vn -0.6592 -0.0713 -0.7486
vn -0.7840 0.0842 -0.6150
vn -0.6292 -0.0680 -0.7743
vn -0.6568 -0.1071 -0.7464
vn -0.7743 -0.2305 -0.5893
vn -0.3934 -0.1074 -0.9131
vn 0.4391 -0.2314 -0.8681
vn -0.9481 0.0421 -0.3153
vn -0.7429 -0.0391 -0.6683
vn 0.9039 0.0587 -0.4236
vn 0.7777 0.4256 -0.4628
vn 0.9997 -0.0245 0.0096
vn 0.6827 -0.6621 -0.3091
vn -0.7900 -0.4663 -0.3980
vn -0.0032 0.0801 0.9968
vn -0.3297 -0.1218 -0.9362
vn -0.8828 -0.1135 -0.4559
vn -0.8094 -0.1080 -0.5773
vn -0.6819 -0.2384 -0.6915
vn -0.7211 0.0677 -0.6895
vn -0.3452 -0.0773 -0.9353
vn 0.3998 -0.7568 0.5171
vn 0.0386 -0.9753 -0.2176
vn 0.3743 -0.7344 0.5662
vn -0.2222 -0.9705 -0.0937
vn 0.3383 -0.9177 0.2084
vn 0.4894 -0.8599 -0.1452
vn 0.4545 -0.8697 -0.1924
vn 0.9879 0.1511 0.0337
vn 0.9731 0.1797 -0.1444
vn 0.8942 0.2663 -0.3597
vn 0.8360 0.2606 -0.4829
vn 0.9978 0.0602 -0.0271
vn 0.9646 0.1126 -0.2383
vn 0.9463 0.0074 -0.3233
vn 0.7021 -0.0246 -0.7117
vn 0.9436 0.0903 -0.3184
vn 0.9256 0.0852 -0.3688
vn 0.7591 0.1075 -0.6421
vn 0.6527 -0.0265 -0.7572
vn 0.7003 -0.0328 -0.7131
vn 0.7606 0.2129 -0.6133
vn 0.8386 0.0167 -0.5444
vn 0.9652 -0.0719 -0.2513
vn 0.8644 0.2831 -0.4156
vn 0.4445 0.1450 -0.8840
vn 0.4872 0.0398 -0.8724
vn 0.5260 0.0361 -0.8497
vn 0.4143 0.1149 -0.9028
vn 0.5043 0.0273 -0.8631
vn -0.0522 0.3995 -0.9153
vn 0.9092 0.0886 -0.4069
vn 0.5919 0.1120 -0.7982
vn 0.1975 -0.5774 -0.7922
vn 0.9321 0.1199 -0.3419
vn 0.8883 -0.0170 -0.4589
vn -0.0635 0.4312 -0.9000
vn -0.9254 0.0359 -0.3772
vn 0.1104 0.5475 -0.8295
vn 0.4351 -0.3564 -0.8268
vn 0.7972 -0.3001 -0.5238
vn -0.9257 -0.2892 -0.2439
vn 0.4491 -0.4854 -0.7501
vn -0.9457 -0.0787 -0.3153
vn -0.3286 0.0003 -0.9445
vn 0.2357 0.6623 -0.7112
vn -0.1414 0.0856 -0.9863
vn 0.9255 0.2874 -0.2468
vn -0.8653 0.1168 -0.4874
vn 0.9590 -0.0414 -0.2803
vn -0.2573 0.2120 -0.9428
vn 0.9317 -0.1061 -0.3474
vn 0.9363 -0.1390 -0.3226
vn 0.8775 -0.0920 -0.4707
vn 0.6819 -0.3171 -0.6592
vn 0.4770 -0.1257 -0.8699
vn 0.7629 0.1067 -0.6376
vn 0.5627 0.1512 -0.8127
vn 0.1288 -0.5479 -0.8266
vn -0.2791 0.2009 -0.9390
vn -0.2574 0.1865 -0.9481
vn -0.4295 0.0779 -0.8997
vn -0.2583 -0.3595 -0.8967
vn 0.0832 0.1989 -0.9765
vn 0.0890 0.2002 -0.9757
vn -0.0335 -0.1531 -0.9876
vn 0.5178 0.1832 -0.8356
vn 0.6332 0.2961 -0.7151
vn -0.0214 -0.1615 -0.9866
vt 0.428014 0.413020
vt 0.480526 0.407807
vt 0.447988 0.439879
vt 0.465303 0.374720
vt 0.420406 0.378746
vt 0.510399 0.371527
vt 0.450997 0.341680
vt 0.515091 0.328586
vt 0.385980 0.334613
vt 0.442018 0.310859
vt 0.603394 0.406784
vt 0.643524 0.402402
vt 0.633318 0.449432
vt 0.632679 0.355933
vt 0.591250 0.349340
vt 0.696283 0.342900
vt 0.688580 0.303460
vt 0.716735 0.322687
vt 0.759257 0.359030
vt 0.791671 0.372963
vt 0.781897 0.407280
vt 0.837835 0.432034
vt 0.857744 0.386941
vt 0.841910 0.363868
vt 0.897402 0.337149
vt 0.811198 0.314690
vt 0.760624 0.297872
vt 0.843810 0.296955
vt 0.887700 0.298305
vt 0.052671 0.380437
vt 0.123398 0.367505
vt 0.093131 0.450328
vt 0.082022 0.268938
vt 0.043777 0.299849
vt 0.235457 0.399455
vt 0.284516 0.406640
vt 0.263668 0.439007
vt 0.205654 0.321571
vt 0.318535 0.336645
vt 0.331264 0.363508
vt 0.312836 0.382057
vt 0.223204 0.262237
vt 0.284657 0.291359
vt 0.357180 0.322769
vt 0.372543 0.283602
vt 0.408884 0.281623
vt 0.382450 0.233662
vt 0.436234 0.213855
vt 0.455900 0.258158
vt 0.495685 0.276959
vt 0.525303 0.287642
vt 0.464383 0.172482
vt 0.613471 0.146820
vt 0.665393 0.194967
vt 0.573025 0.233956
vt 0.589697 0.279897
vt 0.555488 0.324894
vt 0.665516 0.253283
vt 0.736241 0.265886
vt 0.777875 0.256611
vt 0.791943 0.282693
vt 0.789465 0.226450
vt 0.758214 0.224875
vt 0.805082 0.248803
vt 0.812876 0.269641
vt 0.811319 0.228918
vt 0.794958 0.204937
vt 0.824766 0.239632
vt 0.852503 0.256348
vt 0.820621 0.185332
vt 0.887637 0.255465
vt 0.856473 0.219542
vt 0.849495 0.198412
vt 0.026227 0.269495
vt 0.051644 0.234052
vt 0.158188 0.341956
vt 0.158917 0.230985
vt 0.100792 0.152748
vt 0.151897 0.155150
vt 0.248708 0.193446
vt 0.285993 0.186728
vt 0.315699 0.262609
vt 0.526615 0.199450
vt 0.510156 0.138684
vt 0.719248 0.234184
vt 0.726932 0.183963
vt 0.769879 0.174202
vt 0.719469 0.084918
vt 0.799891 0.143912
vt 0.921884 0.287753
vt 0.924945 0.227704
vt 0.898106 0.211843
vt 0.867963 0.187105
vt 0.917648 0.193277
vt 0.885044 0.189171
vt 0.891247 0.177526
vt 0.952952 0.205780
vt 0.900847 0.148348
vt 0.852559 0.164698
vt 0.895090 0.161287
vt 0.975360 0.145067
vt 0.975499 0.196042
vt 0.877133 0.163891
vt 0.919723 0.155535
vt 0.909268 0.120790
vt 0.193541 0.187283
vt 0.198910 0.130388
vt 0.245092 0.193649
vt 0.387424 0.167801
vt 0.322138 0.148935
vt 0.604303 0.111908
vt 0.511095 0.084386
vt 0.564336 0.036425
vt 0.539816 0.023387
vt 0.678243 0.103311
vt 0.648684 0.147962
vt 0.767909 0.128888
vt 0.754680 0.085653
vt 0.720370 0.039895
vt 0.771650 0.079567
vt 0.781313 0.097602
vt 0.758683 0.055143
vt 0.767046 0.068889
vt 0.829768 0.147615
vt 0.844914 0.116064
vt 0.881897 0.127411
vt 0.862734 0.107173
vt 0.883362 0.108091
vt 0.891353 0.120700
vt 0.877884 0.093188
vt 0.888835 0.082453
vt 0.892402 0.063933
vt 0.924040 0.091142
vt 0.927960 0.065522
vt 0.911511 0.024132
vt 0.961913 0.092766
vt 0.926990 0.031090
vt 0.431662 0.125114
vt 0.450705 0.157109
vt 0.398293 0.090204
vt 0.360643 0.110141
vt 0.314978 0.098464
vt 0.362825 0.042895
vt 0.150307 0.081548
vt 0.146218 0.061663
vt 0.168222 0.048796
vt 0.220784 0.099844
vt 0.192307 0.019692
vt 0.174985 0.017528
vt 0.255825 0.128184
s 0
f 34/1/1 22/2/1 20/3/1
f 34/1/2 23/4/2 22/2/2
f 35/5/3 23/4/3 34/1/3
f 23/4/4 24/6/4 22/2/4
f 35/5/5 19/7/5 23/4/5
f 23/4/6 25/8/6 24/6/6
f 23/4/7 19/7/7 25/8/7
f 36/9/8 26/10/8 19/7/8
f 22/11/9 27/12/9 20/13/9
f 22/11/10 28/14/10 27/12/10
f 24/15/11 28/14/11 22/11/11
f 28/14/12 21/16/12 27/12/12
f 28/14/13 42/17/13 21/16/13
f 21/16/14 42/17/14 64/18/14
f 21/19/15 29/20/15 27/21/15
f 27/21/16 29/20/16 20/22/16
f 20/22/17 29/20/17 30/23/17
f 31/24/18 30/23/18 29/20/18
f 31/24/19 12/25/19 30/23/19
f 21/19/20 32/26/20 29/20/20
f 29/20/21 32/26/21 31/24/21
f 64/27/22 32/26/22 21/19/22
f 32/26/23 48/28/23 31/24/23
f 31/24/24 48/28/24 12/25/24
f 48/28/25 52/29/25 12/25/25
f 30/30/26 33/31/26 20/32/26
f 30/30/27 56/33/27 33/31/27
f 12/34/28 56/33/28 30/30/28
f 33/35/29 34/36/29 20/37/29
f 33/35/30 18/38/30 34/36/30
f 36/39/31 19/40/31 35/41/31
f 18/38/32 35/41/32 34/36/32
f 18/38/33 57/42/33 35/41/33
f 35/41/34 37/43/34 36/39/34
f 57/42/35 37/43/35 35/41/35
f 36/39/36 37/43/36 8/44/36
f 37/43/37 60/45/37 8/44/37
f 8/46/38 26/10/38 36/9/38
f 79/47/39 80/48/39 8/46/39
f 80/48/40 38/49/40 8/46/40
f 38/49/41 26/10/41 8/46/41
f 26/10/42 39/50/42 19/7/42
f 39/50/43 25/8/43 19/7/43
f 38/49/44 39/50/44 26/10/44
f 39/50/45 40/51/45 25/8/45
f 80/48/46 39/50/46 38/49/46
f 7/52/47 39/50/47 80/48/47
f 63/53/48 43/54/48 61/55/48
f 17/56/49 24/15/49 25/57/49
f 17/56/50 28/14/50 24/15/50
f 61/55/51 41/58/51 17/56/51
f 17/56/52 42/17/52 28/14/52
f 17/56/53 41/58/53 42/17/53
f 43/54/54 41/58/54 61/55/54
f 44/59/55 64/27/55 42/17/55
f 44/59/56 16/60/56 64/27/56
f 16/60/57 45/61/57 64/27/57
f 64/27/58 45/61/58 32/26/58
f 15/62/59 16/60/59 66/63/59
f 16/60/60 47/64/60 45/61/60
f 15/62/61 47/64/61 16/60/61
f 47/64/62 46/65/62 45/61/62
f 45/61/63 48/28/63 32/26/63
f 46/65/64 48/28/64 45/61/64
f 15/62/65 49/66/65 47/64/65
f 14/67/66 49/66/66 15/62/66
f 49/66/67 50/68/67 47/64/67
f 47/64/68 50/68/68 46/65/68
f 50/68/69 51/69/69 46/65/69
f 46/65/70 51/69/70 48/28/70
f 13/70/71 49/66/71 14/67/71
f 51/69/72 53/71/72 48/28/72
f 53/71/73 52/29/73 48/28/73
f 49/66/74 54/72/74 50/68/74
f 13/70/75 55/73/75 49/66/75
f 50/68/76 54/72/76 51/69/76
f 49/66/77 55/73/77 54/72/77
f 69/74/78 11/75/78 12/34/78
f 11/75/79 56/33/79 12/34/79
f 56/33/80 18/76/80 33/31/80
f 9/77/81 18/76/81 56/33/81
f 98/78/82 10/79/82 56/33/82
f 10/79/83 9/77/83 56/33/83
f 57/42/84 78/80/84 37/43/84
f 58/81/85 37/43/85 78/80/85
f 59/82/86 60/45/86 37/43/86
f 58/81/87 59/82/87 37/43/87
f 7/52/88 62/83/88 39/50/88
f 40/51/89 17/56/89 25/57/89
f 40/51/90 61/55/90 17/56/90
f 39/50/91 62/83/91 40/51/91
f 62/83/92 61/55/92 40/51/92
f 7/52/93 100/84/93 62/83/93
f 62/83/94 63/53/94 61/55/94
f 100/84/95 63/53/95 62/83/95
f 41/58/96 44/59/96 42/17/96
f 41/58/97 65/85/97 44/59/97
f 66/63/98 16/60/98 44/59/98
f 65/85/99 66/63/99 44/59/99
f 41/58/100 43/54/100 65/85/100
f 43/54/101 67/86/101 65/85/101
f 67/86/102 66/63/102 65/85/102
f 66/63/103 14/67/103 15/62/103
f 66/63/104 68/87/104 14/67/104
f 67/86/105 68/87/105 66/63/105
f 68/87/106 13/70/106 14/67/106
f 43/54/107 83/88/107 67/86/107
f 68/87/108 86/89/108 13/70/108
f 52/29/109 53/71/109 12/90/109
f 53/71/110 69/91/110 12/90/110
f 51/69/111 54/72/111 53/71/111
f 53/71/112 70/92/112 69/91/112
f 53/71/113 54/72/113 70/92/113
f 54/72/114 71/93/114 70/92/114
f 54/72/115 55/73/115 71/93/115
f 70/92/116 72/94/116 69/91/116
f 71/93/117 74/95/117 70/92/117
f 70/92/118 73/96/118 72/94/118
f 72/94/119 11/97/119 69/91/119
f 74/95/120 73/96/120 70/92/120
f 92/98/121 11/97/121 72/94/121
f 55/73/122 76/99/122 71/93/122
f 73/96/123 75/100/123 72/94/123
f 11/97/124 98/101/124 56/102/124
f 13/70/125 76/99/125 55/73/125
f 71/93/126 76/99/126 74/95/126
f 76/99/127 90/103/127 74/95/127
f 74/95/128 90/103/128 73/96/128
f 75/100/129 92/98/129 72/94/129
f 94/104/130 95/105/130 92/98/130
f 92/98/131 95/105/131 11/97/131
f 18/38/132 9/77/132 57/42/132
f 9/77/133 77/106/133 57/42/133
f 77/106/134 78/80/134 57/42/134
f 10/79/135 77/106/135 9/77/135
f 77/106/136 104/107/136 78/108/136
f 59/82/137 79/47/137 60/45/137
f 60/45/138 79/47/138 8/46/138
f 59/82/139 81/109/139 79/47/139
f 81/109/140 80/48/140 79/47/140
f 59/82/141 58/81/141 81/109/141
f 81/109/142 7/52/142 80/48/142
f 58/81/143 2/110/143 81/109/143
f 6/111/144 63/53/144 100/84/144
f 3/112/145 6/111/145 100/84/145
f 82/113/146 6/111/146 3/112/146
f 102/114/147 82/113/147 3/112/147
f 6/115/148 43/54/148 63/116/148
f 6/115/149 83/88/149 43/54/149
f 83/88/150 84/117/150 67/86/150
f 85/118/151 84/117/151 83/88/151
f 82/119/152 83/88/152 6/115/152
f 84/117/153 68/87/153 67/86/153
f 84/117/154 86/89/154 68/87/154
f 85/118/155 88/120/155 84/117/155
f 88/120/156 87/121/156 84/117/156
f 5/122/157 83/88/157 82/119/157
f 5/122/158 85/118/158 83/88/158
f 5/122/159 4/123/159 85/118/159
f 4/123/160 88/120/160 85/118/160
f 86/124/161 76/99/161 13/70/161
f 84/125/162 89/126/162 86/124/162
f 89/126/163 90/103/163 86/124/163
f 86/124/164 90/103/164 76/99/164
f 84/125/165 87/127/165 89/126/165
f 75/100/166 73/96/166 90/103/166
f 89/126/167 75/100/167 90/103/167
f 91/128/168 89/126/168 87/127/168
f 89/126/169 92/98/169 75/100/169
f 91/128/170 93/129/170 89/126/170
f 87/127/171 88/130/171 91/128/171
f 93/129/172 92/98/172 89/126/172
f 93/129/173 94/104/173 92/98/173
f 4/131/174 95/105/174 88/130/174
f 88/130/175 95/105/175 91/128/175
f 91/128/176 95/105/176 93/129/176
f 93/129/177 95/105/177 94/104/177
f 5/132/178 96/133/178 4/131/178
f 4/131/179 96/133/179 95/105/179
f 96/133/180 11/97/180 95/105/180
f 5/132/181 97/134/181 96/133/181
f 96/133/182 98/101/182 11/97/182
f 82/135/183 97/134/183 5/132/183
f 97/134/184 99/136/184 96/133/184
f 82/135/185 1/137/185 97/134/185
f 96/133/186 99/136/186 98/101/186
f 81/109/187 100/138/187 7/139/187
f 81/109/188 3/140/188 100/138/188
f 101/141/189 3/140/189 81/109/189
f 81/109/190 2/110/190 101/141/190
f 103/142/191 101/141/191 2/110/191
f 101/141/192 102/143/192 3/140/192
f 101/141/193 103/142/193 102/143/193
f 58/81/194 78/80/194 2/110/194
f 99/144/195 10/79/195 98/78/195
f 99/144/196 104/107/196 10/79/196
f 10/79/197 104/107/197 77/106/197
f 97/145/198 1/146/198 99/144/198
f 99/144/199 103/147/199 104/107/199
f 1/146/200 103/147/200 99/144/200
f 103/147/201 78/108/201 104/107/201
f 102/148/202 103/147/202 1/146/202
f 82/149/203 102/148/203 1/146/203
f 103/147/204 2/150/204 78/108/204
