# Blender 4.2.1 LTS
# www.blender.org
mtllib CrabEye.mtl
o Cube
v -0.290262 2.580924 -2.463136
v 0.807263 2.998160 -3.234470
v -0.743175 4.477396 -2.081729
v 1.158075 3.921747 -2.235710
v -0.396508 2.439724 -1.283702
v -1.093987 3.553809 -3.080489
v -0.301156 1.535791 -0.694084
v 0.354350 4.894631 -2.853064
v 0.830649 2.974104 -1.710465
v -0.983953 3.712257 -1.379471
v -0.633814 3.974366 -0.044441
v 1.180788 3.236214 -0.375435
v -0.129149 -0.785521 -0.650166
v 0.593343 4.508746 -0.471204
v 0.625636 2.154755 -0.867231
v -0.861094 2.462521 -0.378364
v -0.545555 2.289045 0.690457
v 0.941175 1.981278 0.201590
v 0.381237 2.908008 0.517310
v 0.738392 -0.065508 -0.618680
v -0.744889 -0.070641 -0.032226
v -0.370355 -0.563150 0.910747
v 1.112926 -0.558017 0.324293
v 0.245384 -1.278030 0.292807
v 0.497187 0.156863 0.942232
v -1.074047 5.005708 -3.089355
v -0.937431 4.908747 -3.189708
v -1.561278 3.722968 -4.476501
v -1.360749 3.794271 -4.394894
v 0.386933 5.412219 -4.120463
v 0.450270 5.585194 -4.160637
v -0.445010 2.371760 -3.619080
v -0.390908 2.620309 -3.649944
v 1.356774 4.238256 -3.375514
v 1.566537 4.233985 -3.303215
v 1.079306 2.951246 -4.690361
v 0.933430 3.123812 -4.580729
v -0.646298 4.220893 -4.801403
v -0.563936 3.878382 -4.870436
v -0.246332 4.165755 -5.015164
v 0.322199 4.697830 -4.731665
v -0.022062 4.798651 -4.703689
v 0.038565 4.429110 -4.970760
v 0.256205 3.638564 -4.936693
v 0.517702 3.880186 -4.895639
v 0.128228 4.056026 -5.045375
vn 0.4183 -0.9020 0.1072
vn 0.3965 -0.9154 0.0690
vn 0.3807 -0.9247 0.0048
vn 0.5496 0.7214 0.4213
vn 0.6237 0.7153 0.3153
vn 0.7401 0.6449 0.1907
vn -0.8147 -0.5416 0.2071
vn -0.8106 -0.5592 0.1740
vn -0.0084 0.8845 0.4665
vn -0.0806 0.9202 0.3831
vn 0.5908 0.0965 -0.8010
vn 0.8058 0.3207 -0.4979
vn 0.8041 0.2985 -0.5141
vn 0.8433 -0.5085 0.1740
vn 0.8748 -0.4680 0.1255
vn -0.5890 0.7037 -0.3974
vn -0.2667 0.6930 -0.6698
vn -0.5557 0.4264 -0.7137
vn -0.9576 0.2396 0.1597
vn -0.9376 0.3150 0.1475
vn -0.9583 0.1592 0.2374
vn -0.1756 0.9382 0.2981
vn -0.2895 0.9311 0.2221
vn -0.8435 -0.5319 0.0749
vn -0.8595 -0.4945 -0.1289
vn 0.9043 -0.3676 -0.2170
vn 0.9388 -0.2279 -0.2584
vn 0.9166 -0.3811 -0.1210
vn 0.6579 0.2889 0.6955
vn 0.6701 0.2241 0.7076
vn 0.6795 0.1472 0.7188
vn 0.1396 -0.6235 -0.7692
vn 0.1289 -0.6421 -0.7557
vn 0.1931 -0.5217 -0.8310
vn 0.3584 -0.9324 -0.0466
vn 0.3755 -0.9236 -0.0767
vn 0.8576 0.5030 0.1072
vn 0.8941 0.4237 0.1452
vn 0.9075 -0.4196 0.0186
vn -0.0698 -0.0921 -0.9933
vn 0.0118 -0.0394 -0.9992
vn 0.0489 -0.0153 -0.9987
vn -0.9546 0.0210 0.2972
vn -0.9399 -0.0249 0.3404
vn -0.9342 -0.0299 0.3554
vn 0.0021 0.2251 0.9743
vn -0.0625 0.0868 0.9943
vn 0.0012 0.3564 0.9343
vn -0.8587 -0.4042 -0.3150
vn -0.7979 -0.3314 -0.5035
vn 0.0186 0.4798 0.8772
vn 0.0714 0.5172 0.8529
vn -0.9598 0.0531 0.2756
vn 0.3321 -0.4367 0.8361
vn 0.5459 -0.6338 -0.5479
vn -0.7692 -0.6384 -0.0279
vn 0.7373 0.0922 0.6692
vn 0.7520 0.0825 0.6540
vn 0.9454 -0.1041 -0.3088
vn 0.9425 0.0396 -0.3318
vn -0.7234 -0.1888 -0.6642
vn -0.7282 -0.0794 -0.6808
vn -0.5813 0.0255 -0.8133
vn -0.5813 0.0254 -0.8133
vn 0.4301 -0.2029 -0.8797
vn 0.0177 0.7310 -0.6822
vn 0.2560 0.6632 -0.7032
vn 0.2559 0.6633 -0.7032
vn 0.2561 0.6632 -0.7033
vn 0.3030 -0.3195 -0.8979
vn -0.5809 0.0237 -0.8137
vn -0.9476 0.0150 0.3190
vn -0.9622 0.0862 0.2582
vn -0.3798 -0.3801 -0.8434
vn -0.5156 0.0484 -0.8554
vn 0.0499 0.4155 -0.9082
vn -0.2625 0.1246 -0.9569
vn 0.5290 0.4670 -0.7086
vn 0.1253 0.6384 -0.7594
vn -0.0113 -0.4884 -0.8725
vn 0.3311 -0.2018 -0.9218
vn 0.1458 0.0060 -0.9893
vn -0.2594 -0.7046 -0.6605
vn -0.2595 -0.7049 -0.6602
vn 0.8248 0.2402 -0.5119
vn -0.6267 0.6694 -0.3989
vn -0.5530 0.7374 -0.3880
vn -0.3148 0.9174 0.2434
vn 0.6329 0.3444 0.6934
vn 0.0772 -0.7244 -0.6851
vn -0.1070 -0.1160 -0.9875
vn -0.0949 0.0709 0.9930
vn 0.9365 0.0465 -0.3476
vn -0.7448 -0.0678 -0.6638
vn -0.5813 0.0253 -0.8133
vn -0.2497 -0.6574 -0.7109
vt 0.928783 0.170890
vt 0.864833 0.288470
vt 0.835589 0.221550
vt 0.788305 0.389129
vt 0.721855 0.287126
vt 0.791899 0.293390
vt 0.792744 0.159970
vt 0.792443 0.058630
vt 0.659586 0.175159
vt 0.648904 0.332453
vt 0.704196 0.618044
vt 0.812272 0.679248
vt 0.690594 0.748444
vt 0.944613 0.337871
vt 0.895420 0.566250
vt 0.775161 0.619444
vt 0.763502 0.564584
vt 0.326601 0.601588
vt 0.246922 0.455954
vt 0.285247 0.389796
vt 0.308516 0.379253
vt 0.567210 0.472605
vt 0.046550 0.300003
vt 0.033964 0.601588
vt 0.292531 0.359510
vt 0.270585 0.354181
vt 0.283684 0.276033
vt 0.283092 0.371595
vt 0.278311 0.366781
vt 0.231571 0.366505
vt 0.267425 0.369570
vt 0.459592 0.222304
vt 0.218913 0.033964
vt 0.273674 0.369358
vt 0.273748 0.369355
vt 0.275923 0.374082
vt 0.273819 0.369374
vt 0.273791 0.369312
vt 0.273781 0.369273
vt 0.265626 0.380021
vt 0.136521 0.742123
vt 0.033964 0.709082
vt 0.124650 0.669517
vt 0.169562 0.844680
vt 0.209128 0.753994
vt 0.209128 0.669517
vt 0.273723 0.369266
vt 0.966036 0.147688
vt 0.785794 0.033964
vt 0.637068 0.170329
vt 0.966036 0.356220
vt 0.779442 0.412280
vt 0.635139 0.338410
vt 0.750326 0.222170
vt 0.740079 0.556629
vt 0.774203 0.495834
vt 0.748209 0.607997
vt 0.742822 0.584849
vt 0.756704 0.635814
vt 0.699161 0.593637
vt 0.635139 0.620079
vt 0.726274 0.600464
vt 0.084499 0.794145
vt 0.635139 0.480208
s 1
usemtl Material
f 32/1/1 2/2/2 1/3/3
f 35/4/4 8/5/5 4/6/6
f 32/1/7 6/7/8 28/8/7
f 26/9/9 8/5/10 31/10/9
f 45/11/11 30/12/12 34/13/13
f 35/4/14 2/2/15 36/14/14
f 27/15/16 42/16/17 38/17/18
f 3/18/19 10/19/20 11/20/21
f 3/18/22 14/21/23 8/22/10
f 1/23/24 10/19/25 6/24/8
f 12/25/26 15/26/27 9/27/28
f 12/25/29 19/28/30 18/29/31
f 5/30/32 15/26/33 7/31/34
f 1/23/3 9/27/35 5/30/36
f 4/32/6 14/21/37 12/25/38
f 4/32/39 9/27/28 2/33/15
f 7/31/40 20/34/41 13/35/42
f 17/36/43 21/37/44 22/38/45
f 17/36/46 25/39/47 19/28/48
f 5/30/49 16/40/50 10/19/25
f 11/20/51 19/28/48 14/21/52
f 11/20/21 16/40/53 17/36/43
f 24/41/54 25/42/54 22/43/54
f 20/44/55 24/41/55 13/45/55
f 13/45/56 22/43/56 21/46/56
f 18/29/31 25/39/57 23/47/58
f 18/29/59 20/34/60 15/26/27
f 7/31/61 21/37/62 16/40/50
f 33/48/63 36/14/64 32/1/63
f 33/48/65 28/8/65 29/49/65
f 29/49/66 26/9/66 27/50/66
f 37/51/67 35/4/68 36/14/69
f 31/10/70 34/52/70 30/53/70
f 31/10/71 27/50/71 26/9/71
f 26/9/72 6/7/73 3/54/19
f 38/17/18 39/55/74 29/56/75
f 38/17/18 43/57/76 40/58/77
f 41/59/78 42/16/17 30/12/79
f 45/11/11 43/57/76 41/59/78
f 44/60/80 45/11/11 37/61/81
f 44/60/80 40/58/77 46/62/82
f 40/58/77 43/57/76 46/62/82
f 29/56/83 44/60/80 37/61/84
f 32/1/1 36/14/1 2/2/2
f 35/4/4 31/10/4 8/5/5
f 32/1/7 1/3/24 6/7/8
f 26/9/9 3/54/22 8/5/10
f 34/13/13 37/61/85 45/11/11
f 45/11/11 41/59/78 30/12/12
f 35/4/14 4/6/39 2/2/15
f 38/17/18 29/56/86 27/15/16
f 27/15/16 30/12/87 42/16/17
f 3/18/19 6/24/73 10/19/20
f 3/18/22 11/20/88 14/21/23
f 1/23/24 5/30/49 10/19/25
f 12/25/26 18/29/59 15/26/27
f 12/25/29 14/21/89 19/28/30
f 5/30/32 9/27/90 15/26/33
f 1/23/3 2/33/2 9/27/35
f 4/32/6 8/22/5 14/21/37
f 4/32/39 12/25/26 9/27/28
f 7/31/40 15/26/91 20/34/41
f 17/36/43 16/40/53 21/37/44
f 17/36/46 22/38/92 25/39/47
f 5/30/49 7/31/61 16/40/50
f 11/20/51 17/36/46 19/28/48
f 11/20/21 10/19/20 16/40/53
f 24/41/54 23/63/54 25/42/54
f 20/44/55 23/63/55 24/41/55
f 13/45/56 24/41/56 22/43/56
f 18/29/31 19/28/30 25/39/57
f 18/29/59 23/47/93 20/34/60
f 7/31/61 13/35/94 21/37/62
f 33/48/63 37/51/95 36/14/64
f 33/48/65 32/1/65 28/8/65
f 29/49/66 28/8/66 26/9/66
f 37/51/67 34/52/68 35/4/68
f 31/10/70 35/4/70 34/52/70
f 31/10/71 30/53/71 27/50/71
f 26/9/72 28/8/72 6/7/73
f 38/17/18 40/58/77 39/55/74
f 38/17/18 42/16/17 43/57/76
f 41/59/78 43/57/76 42/16/17
f 45/11/11 46/62/82 43/57/76
f 44/60/80 46/62/82 45/11/11
f 44/60/80 39/55/74 40/58/77
f 37/61/84 33/64/96 29/56/83
f 29/56/83 39/55/74 44/60/80
