# WaveFront *.obj file (generated by Autodesk ATF)

mtllib Knob.mtl

g Knob

v -0.001586 0.004000 0.003000
v 0.001586 0.004000 0.003000
v 0.002000 0.005000 0.002000
v -0.002000 0.005000 0.002000
v 0.004000 0.001586 0.003000
v 0.005000 0.002000 0.002000
v 0.004000 -0.001586 0.003000
v 0.005000 -0.002000 0.002000
v 0.002000 -0.005000 0.002000
v 0.001586 -0.004000 0.003000
v -0.002000 -0.005000 0.002000
v -0.001586 -0.004000 0.003000
v -0.005000 -0.002000 0.002000
v -0.004000 -0.001586 0.003000
v -0.005000 0.002000 0.002000
v -0.004000 0.001586 0.003000
v -0.005000 -0.002000 0.000000
v -0.002000 -0.005000 0.000000
v -0.005000 0.002000 0.000000
v -0.002000 0.005000 0.000000
v 0.002000 0.005000 0.000000
v 0.002000 -0.005000 0.000000
v 0.005000 -0.002000 0.000000
v 0.005000 0.002000 0.000000
vt -0.408579 -0.070711 0.000000
vt -0.091421 -0.070711 0.000000
vt -0.450000 0.070711 0.000000
vt -0.050000 0.070711 0.000000
vt -0.156295 0.098560 0.000000
vt 0.040825 -0.180210 0.000000
vt -0.064739 0.214030 0.000000
vt 0.180210 -0.132380 0.000000
vt -0.070711 0.091421 0.000000
vt 0.070711 0.050000 0.000000
vt -0.070711 0.408579 0.000000
vt 0.070711 0.450000 0.000000
vt 0.180210 0.132380 0.000000
vt 0.040825 0.180210 0.000000
vt -0.064739 -0.214030 0.000000
vt -0.156295 -0.098560 0.000000
vt 0.050000 -0.070711 0.000000
vt 0.450000 -0.070711 0.000000
vt 0.091421 0.070711 0.000000
vt 0.408579 0.070711 0.000000
vt -0.180210 0.132380 0.000000
vt 0.064739 -0.214030 0.000000
vt -0.040825 0.180210 0.000000
vt 0.156295 -0.098560 0.000000
vt -0.070711 -0.050000 0.000000
vt -0.070711 -0.450000 0.000000
vt 0.070711 -0.091421 0.000000
vt 0.070711 -0.408579 0.000000
vt -0.180210 -0.132380 0.000000
vt -0.040825 -0.180210 0.000000
vt 0.064739 0.214030 0.000000
vt 0.156295 0.098560 0.000000
vt 0.200000 0.212132 0.000000
vt 0.000000 0.212132 0.000000
vt 0.200000 -0.212132 0.000000
vt 0.000000 -0.212132 0.000000
vt 0.700000 0.200000 0.000000
vt 0.300000 0.200000 0.000000
vt 0.700000 0.000000 0.000000
vt 0.300000 0.000000 0.000000
vt 0.200000 0.212132 0.000000
vt 0.000000 0.212132 0.000000
vt 0.200000 -0.212132 0.000000
vt 0.000000 -0.212132 0.000000
vt 0.700000 0.200000 0.000000
vt 0.300000 0.200000 0.000000
vt 0.700000 0.000000 0.000000
vt 0.300000 0.000000 0.000000
vt 0.158579 0.400000 0.000000
vt -0.158579 0.400000 0.000000
vt 0.400000 0.158579 0.000000
vt -0.400000 0.158579 0.000000
vt 0.400000 -0.158579 0.000000
vt -0.400000 -0.158579 0.000000
vt 0.158579 -0.400000 0.000000
vt -0.158579 -0.400000 0.000000
vt -0.200000 -0.212132 0.000000
vt -0.000000 -0.212132 0.000000
vt -0.200000 0.212132 0.000000
vt 0.000000 0.212132 0.000000
vt -0.200000 -0.500000 0.000000
vt 0.200000 -0.500000 0.000000
vt -0.500000 -0.200000 0.000000
vt 0.500000 -0.200000 0.000000
vt -0.500000 0.200000 0.000000
vt 0.500000 0.200000 0.000000
vt -0.200000 0.500000 0.000000
vt 0.200000 0.500000 0.000000
vt 0.700000 0.200000 0.000000
vt 0.300000 0.200000 0.000000
vt 0.700000 0.000000 0.000000
vt 0.300000 0.000000 0.000000
vt -0.200000 -0.212132 0.000000
vt 0.000000 -0.212132 0.000000
vt -0.200000 0.212132 0.000000
vt 0.000000 0.212132 0.000000
vt 0.700000 0.200000 0.000000
vt 0.300000 0.200000 0.000000
vt 0.700000 0.000000 0.000000
vt 0.300000 0.000000 0.000000
vn 0.000000 70.710678 70.710678
vn 0.000000 70.710678 70.710678
vn 0.000000 70.710678 70.710678
vn 0.000000 70.710678 70.710678
vn 50.000000 50.000000 70.710678
vn 50.000000 50.000000 70.710678
vn 50.000000 50.000000 70.710678
vn 50.000000 50.000000 70.710678
vn 70.710678 0.000000 70.710678
vn 70.710678 0.000000 70.710678
vn 70.710678 0.000000 70.710678
vn 70.710678 0.000000 70.710678
vn 50.000000 -50.000000 70.710678
vn 50.000000 -50.000000 70.710678
vn 50.000000 -50.000000 70.710678
vn 50.000000 -50.000000 70.710678
vn 0.000000 -70.710678 70.710678
vn 0.000000 -70.710678 70.710678
vn 0.000000 -70.710678 70.710678
vn 0.000000 -70.710678 70.710678
vn -50.000000 -50.000000 70.710678
vn -50.000000 -50.000000 70.710678
vn -50.000000 -50.000000 70.710678
vn -50.000000 -50.000000 70.710678
vn -70.710678 0.000000 70.710678
vn -70.710678 0.000000 70.710678
vn -70.710678 0.000000 70.710678
vn -70.710678 0.000000 70.710678
vn -50.000000 50.000000 70.710678
vn -50.000000 50.000000 70.710678
vn -50.000000 50.000000 70.710678
vn -50.000000 50.000000 70.710678
vn -70.710678 -70.710678 0.000000
vn -70.710678 -70.710678 0.000000
vn -70.710678 -70.710678 0.000000
vn -70.710678 -70.710678 0.000000
vn -100.000000 0.000000 0.000000
vn -100.000000 0.000000 0.000000
vn -100.000000 0.000000 0.000000
vn -100.000000 0.000000 0.000000
vn -70.710678 70.710678 0.000000
vn -70.710678 70.710678 0.000000
vn -70.710678 70.710678 0.000000
vn -70.710678 70.710678 0.000000
vn 0.000000 100.000000 0.000000
vn 0.000000 100.000000 0.000000
vn 0.000000 100.000000 0.000000
vn 0.000000 100.000000 0.000000
vn 0.000000 0.000000 100.000000
vn 0.000000 0.000000 100.000000
vn 0.000000 0.000000 100.000000
vn 0.000000 0.000000 100.000000
vn 0.000000 0.000000 100.000000
vn 0.000000 0.000000 100.000000
vn 0.000000 0.000000 100.000000
vn 0.000000 0.000000 100.000000
vn 70.710678 -70.710678 0.000000
vn 70.710678 -70.710678 0.000000
vn 70.710678 -70.710678 0.000000
vn 70.710678 -70.710678 0.000000
vn -0.000000 0.000000 -100.000000
vn -0.000000 0.000000 -100.000000
vn -0.000000 0.000000 -100.000000
vn -0.000000 0.000000 -100.000000
vn -0.000000 0.000000 -100.000000
vn -0.000000 0.000000 -100.000000
vn -0.000000 0.000000 -100.000000
vn -0.000000 0.000000 -100.000000
vn 0.000000 -100.000000 0.000000
vn 0.000000 -100.000000 0.000000
vn 0.000000 -100.000000 0.000000
vn 0.000000 -100.000000 0.000000
vn 70.710678 70.710678 0.000000
vn 70.710678 70.710678 0.000000
vn 70.710678 70.710678 0.000000
vn 70.710678 70.710678 0.000000
vn 100.000000 0.000000 0.000000
vn 100.000000 0.000000 0.000000
vn 100.000000 0.000000 0.000000
vn 100.000000 0.000000 0.000000
usemtl Steel_-_Satin
f 1/1/1 2/2/2 4/3/3
f 4/3/3 2/2/2 3/4/4
f 2/5/5 5/6/6 3/7/7
f 3/7/7 5/6/6 6/8/8
f 7/9/9 8/10/10 5/11/11
f 5/11/11 8/10/10 6/12/12
f 8/13/13 7/14/14 9/15/15
f 9/15/15 7/14/14 10/16/16
f 11/17/17 9/18/18 12/19/19
f 12/19/19 9/18/18 10/20/20
f 13/21/21 11/22/22 14/23/23
f 14/23/23 11/22/22 12/24/24
f 15/25/25 13/26/26 16/27/27
f 16/27/27 13/26/26 14/28/28
f 15/29/29 16/30/30 4/31/31
f 4/31/31 16/30/30 1/32/32
f 13/33/33 17/34/34 11/35/35
f 11/35/35 17/34/34 18/36/36
f 13/37/37 15/38/38 17/39/39
f 17/39/39 15/38/38 19/40/40
f 4/41/41 20/42/42 15/43/43
f 15/43/43 20/42/42 19/44/44
f 4/45/45 3/46/46 20/47/47
f 20/47/47 3/46/46 21/48/48
f 2/49/49 1/50/50 5/51/51
f 5/51/51 1/50/50 16/52/52
f 5/51/51 16/52/52 7/53/53
f 7/53/53 16/52/52 14/54/54
f 7/53/53 14/54/54 10/55/55
f 10/55/55 14/54/54 12/56/56
f 9/57/57 22/58/58 8/59/59
f 8/59/59 22/58/58 23/60/60
f 22/61/61 18/62/62 23/63/63
f 23/63/63 18/62/62 17/64/64
f 23/63/63 17/64/64 24/65/65
f 24/65/65 17/64/64 19/66/66
f 24/65/65 19/66/66 21/67/67
f 21/67/67 19/66/66 20/68/68
f 9/69/69 11/70/70 22/71/71
f 22/71/71 11/70/70 18/72/72
f 6/73/73 24/74/74 3/75/75
f 3/75/75 24/74/74 21/76/76
f 6/77/77 8/78/78 24/79/79
f 24/79/79 8/78/78 23/80/80
# 24 vertices
# 80 texture params
# 80 normals
# 44 facets

# 1 groups
