# WaveFront *.obj file (generated by Autodesk ATF)

mtllib Printer.mtl

g Body6

v 0.060000 -0.030000 0.002000
v 0.060000 0.015000 0.002000
v 0.057000 0.013757 0.005000
v 0.057000 -0.028757 0.005000
v 0.053757 -0.032000 0.005000
v -0.053757 -0.032000 0.005000
v -0.055000 -0.035000 0.002000
v 0.055000 -0.035000 0.002000
v -0.057000 -0.028757 0.005000
v -0.057000 0.013757 0.005000
v -0.060000 0.015000 0.002000
v -0.060000 -0.030000 0.002000
v -0.055000 0.020000 0.002000
v -0.053757 0.017000 0.005000
v 0.055000 0.020000 0.002000
v 0.053757 0.017000 0.005000
v 0.055000 -0.035000 -0.005000
v 0.060000 -0.030000 -0.005000
v -0.055000 -0.035000 -0.005000
v -0.060000 -0.030000 -0.005000
v -0.060000 0.015000 -0.005000
v 0.051000 -0.003000 0.005000
v -0.051000 -0.003000 0.005000
v -0.051000 0.006000 0.005000
v 0.051000 0.006000 0.005000
v 0.060000 0.015000 -0.005000
v 0.055000 0.020000 -0.005000
v -0.055000 0.020000 -0.005000
v -0.050000 0.000000 -0.005000
v 0.050000 0.000000 -0.005000
v 0.050000 0.005000 -0.005000
v -0.050000 0.005000 -0.005000
v 0.050000 0.005000 0.004000
v 0.050000 -0.002000 0.004000
v -0.050000 0.005000 0.004000
v -0.050000 -0.002000 0.004000
v 0.050000 0.000000 0.002000
v -0.050000 0.000000 0.002000
vt 0.212132 2.375000 0.000000
vt -0.212132 2.250736 0.000000
vt 0.212132 -2.125000 0.000000
vt -0.212132 -2.000736 0.000000
vt 8.125736 0.212132 0.000000
vt -2.625736 0.212132 0.000000
vt 8.250000 -0.212132 0.000000
vt -2.750000 -0.212132 0.000000
vt 0.212132 -3.250736 0.000000
vt 0.212132 1.000736 0.000000
vt -0.212132 -3.375000 0.000000
vt -0.212132 1.125000 0.000000
vt -1.142795 -1.248732 0.000000
vt -0.724641 -1.392220 0.000000
vt -0.734546 -0.671382 0.000000
vt -0.459880 -1.017792 0.000000
vt 2.750000 0.212132 0.000000
vt -8.250000 0.212132 0.000000
vt 2.625736 -0.212132 0.000000
vt -8.125736 -0.212132 0.000000
vt -0.255756 0.729117 0.000000
vt -0.520517 1.103545 0.000000
vt -0.530422 0.382707 0.000000
vt -0.938671 0.960057 0.000000
vt 1.142795 -1.248732 0.000000
vt 0.734546 -0.671382 0.000000
vt 0.724641 -1.392220 0.000000
vt 0.459880 -1.017792 0.000000
vt 0.938671 0.960057 0.000000
vt 0.520517 1.103545 0.000000
vt 0.530422 0.382707 0.000000
vt 0.255756 0.729117 0.000000
vt -0.200000 -0.353553 0.000000
vt 0.500000 -0.353553 0.000000
vt -0.200000 0.353553 0.000000
vt 0.500000 0.353553 0.000000
vt -0.200000 0.000000 0.000000
vt 0.500000 0.000000 0.000000
vt -0.200000 11.000000 0.000000
vt 0.500000 11.000000 0.000000
vt 0.200000 0.353553 0.000000
vt -0.500000 0.353553 0.000000
vt 0.200000 -0.353553 0.000000
vt -0.500000 -0.353553 0.000000
vt 0.200000 0.500000 0.000000
vt -0.500000 0.500000 0.000000
vt 0.200000 -4.000000 0.000000
vt -0.500000 -4.000000 0.000000
vt -5.100000 -0.050000 0.000000
vt 5.700000 -2.625736 0.000000
vt 5.100000 -0.050000 0.000000
vt 5.700000 1.625736 0.000000
vt 5.100000 0.850000 0.000000
vt 5.375736 1.950000 0.000000
vt -5.375736 1.950000 0.000000
vt -5.100000 0.850000 0.000000
vt -5.700000 1.625736 0.000000
vt -5.700000 -2.625736 0.000000
vt 5.375736 -2.950000 0.000000
vt -5.375736 -2.950000 0.000000
vt -0.200000 -1.500000 0.000000
vt 0.500000 -1.500000 0.000000
vt -0.200000 3.000000 0.000000
vt 0.500000 3.000000 0.000000
vt -0.200000 -0.353553 0.000000
vt 0.500000 -0.353553 0.000000
vt -0.200000 0.353553 0.000000
vt 0.500000 0.353553 0.000000
vt 0.200000 0.353553 0.000000
vt -0.500000 0.353553 0.000000
vt 0.200000 -0.353553 0.000000
vt -0.500000 -0.353553 0.000000
vt -5.500000 -3.250000 0.000000
vt 5.500000 -3.250000 0.000000
vt -6.000000 -2.750000 0.000000
vt 6.000000 -2.750000 0.000000
vt -5.000000 0.250000 0.000000
vt 5.000000 0.250000 0.000000
vt 6.000000 1.750000 0.000000
vt 5.000000 0.750000 0.000000
vt 5.500000 2.250000 0.000000
vt -5.500000 2.250000 0.000000
vt -5.000000 0.750000 0.000000
vt -6.000000 1.750000 0.000000
vt 0.200000 0.000000 0.000000
vt -0.500000 0.000000 0.000000
vt 0.200000 -11.000000 0.000000
vt -0.500000 -11.000000 0.000000
vt -0.070711 -0.325000 0.000000
vt 0.070711 -0.425000 0.000000
vt -0.070711 0.375000 0.000000
vt 0.070711 0.475000 0.000000
vt 7.600000 0.070711 0.000000
vt -2.600000 0.070711 0.000000
vt 7.500000 -0.070711 0.000000
vt -2.500000 -0.070711 0.000000
vt -0.070711 0.725000 0.000000
vt -0.070711 -0.175000 0.000000
vt 0.070711 0.625000 0.000000
vt 0.070711 -0.075000 0.000000
vt 0.700000 0.400000 0.000000
vt 0.000000 0.400000 0.000000
vt 0.500000 0.200000 0.000000
vt 0.000000 -0.500000 0.000000
vt 0.500000 -0.500000 0.000000
vt 10.000000 0.400000 0.000000
vt 0.000000 0.400000 0.000000
vt 10.000000 -0.500000 0.000000
vt 0.000000 -0.500000 0.000000
vt -0.200000 0.400000 0.000000
vt 0.000000 0.200000 0.000000
vt 0.500000 0.400000 0.000000
vt 0.500000 -0.500000 0.000000
vt 0.000000 -0.500000 0.000000
vt 2.500000 0.212132 0.000000
vt -7.500000 0.212132 0.000000
vt 2.500000 -0.070711 0.000000
vt -7.500000 -0.070711 0.000000
vt 2.600000 -0.212132 0.000000
vt -7.600000 -0.212132 0.000000
vt 10.000000 0.200000 0.000000
vt 0.000000 0.200000 0.000000
vt 10.000000 -0.500000 0.000000
vt 0.000000 -0.500000 0.000000
vn 70.710678 0.000000 70.710678
vn 70.710678 0.000000 70.710678
vn 70.710678 0.000000 70.710678
vn 70.710678 0.000000 70.710678
vn 0.000000 -70.710678 70.710678
vn 0.000000 -70.710678 70.710678
vn 0.000000 -70.710678 70.710678
vn 0.000000 -70.710678 70.710678
vn -70.710678 0.000000 70.710678
vn -70.710678 0.000000 70.710678
vn -70.710678 0.000000 70.710678
vn -70.710678 0.000000 70.710678
vn -50.000000 50.000000 70.710678
vn -50.000000 50.000000 70.710678
vn -50.000000 50.000000 70.710678
vn -50.000000 50.000000 70.710678
vn 0.000000 70.710678 70.710678
vn 0.000000 70.710678 70.710678
vn 0.000000 70.710678 70.710678
vn 0.000000 70.710678 70.710678
vn -50.000000 -50.000000 70.710678
vn -50.000000 -50.000000 70.710678
vn -50.000000 -50.000000 70.710678
vn -50.000000 -50.000000 70.710678
vn 50.000000 50.000000 70.710678
vn 50.000000 50.000000 70.710678
vn 50.000000 50.000000 70.710678
vn 50.000000 50.000000 70.710678
vn 50.000000 -50.000000 70.710678
vn 50.000000 -50.000000 70.710678
vn 50.000000 -50.000000 70.710678
vn 50.000000 -50.000000 70.710678
vn 70.710678 -70.710678 0.000000
vn 70.710678 -70.710678 0.000000
vn 70.710678 -70.710678 0.000000
vn 70.710678 -70.710678 0.000000
vn 0.000000 -100.000000 0.000000
vn 0.000000 -100.000000 0.000000
vn 0.000000 -100.000000 0.000000
vn 0.000000 -100.000000 0.000000
vn -70.710678 -70.710678 0.000000
vn -70.710678 -70.710678 0.000000
vn -70.710678 -70.710678 0.000000
vn -70.710678 -70.710678 0.000000
vn -100.000000 0.000000 0.000000
vn -100.000000 0.000000 0.000000
vn -100.000000 0.000000 0.000000
vn -100.000000 0.000000 0.000000
vn 0.000000 0.000000 100.000000
vn 0.000000 0.000000 100.000000
vn 0.000000 0.000000 100.000000
vn 0.000000 0.000000 100.000000
vn 0.000000 0.000000 100.000000
vn 0.000000 0.000000 100.000000
vn 0.000000 0.000000 100.000000
vn 0.000000 0.000000 100.000000
vn 0.000000 0.000000 100.000000
vn 0.000000 0.000000 100.000000
vn 0.000000 0.000000 100.000000
vn 0.000000 0.000000 100.000000
vn 100.000000 0.000000 0.000000
vn 100.000000 0.000000 0.000000
vn 100.000000 0.000000 0.000000
vn 100.000000 0.000000 0.000000
vn 70.710678 70.710678 0.000000
vn 70.710678 70.710678 0.000000
vn 70.710678 70.710678 0.000000
vn 70.710678 70.710678 0.000000
vn -70.710678 70.710678 0.000000
vn -70.710678 70.710678 0.000000
vn -70.710678 70.710678 0.000000
vn -70.710678 70.710678 0.000000
vn 0.000000 0.000000 -100.000000
vn 0.000000 0.000000 -100.000000
vn 0.000000 0.000000 -100.000000
vn 0.000000 0.000000 -100.000000
vn 0.000000 0.000000 -100.000000
vn 0.000000 0.000000 -100.000000
vn 0.000000 0.000000 -100.000000
vn 0.000000 0.000000 -100.000000
vn 0.000000 0.000000 -100.000000
vn 0.000000 0.000000 -100.000000
vn 0.000000 0.000000 -100.000000
vn 0.000000 0.000000 -100.000000
vn 0.000000 100.000000 0.000000
vn 0.000000 100.000000 0.000000
vn 0.000000 100.000000 0.000000
vn 0.000000 100.000000 0.000000
vn -70.710678 0.000000 70.710678
vn -70.710678 0.000000 70.710678
vn -70.710678 0.000000 70.710678
vn -70.710678 0.000000 70.710678
vn 0.000000 -70.710678 70.710678
vn 0.000000 -70.710678 70.710678
vn 0.000000 -70.710678 70.710678
vn 0.000000 -70.710678 70.710678
vn 70.710678 -0.000000 70.710678
vn 70.710678 -0.000000 70.710678
vn 70.710678 -0.000000 70.710678
vn 70.710678 -0.000000 70.710678
vn -100.000000 0.000000 0.000000
vn -100.000000 0.000000 0.000000
vn -100.000000 0.000000 0.000000
vn -100.000000 0.000000 0.000000
vn -100.000000 0.000000 0.000000
vn 0.000000 -100.000000 0.000000
vn 0.000000 -100.000000 0.000000
vn 0.000000 -100.000000 0.000000
vn 0.000000 -100.000000 0.000000
vn 100.000000 0.000000 0.000000
vn 100.000000 0.000000 0.000000
vn 100.000000 0.000000 0.000000
vn 100.000000 0.000000 0.000000
vn 100.000000 0.000000 0.000000
vn 0.000000 70.710678 70.710678
vn 0.000000 70.710678 70.710678
vn 0.000000 70.710678 70.710678
vn 0.000000 70.710678 70.710678
vn 0.000000 70.710678 70.710678
vn 0.000000 70.710678 70.710678
vn 0.000000 100.000000 0.000000
vn 0.000000 100.000000 0.000000
vn 0.000000 100.000000 0.000000
vn 0.000000 100.000000 0.000000
usemtl Steel_-_Satin
f 2/1/1 3/2/2 1/3/3
f 1/3/3 3/2/2 4/4/4
f 5/5/5 6/6/6 8/7/7
f 8/7/7 6/6/6 7/8/8
f 9/9/9 10/10/10 12/11/11
f 12/11/11 10/10/10 11/12/12
f 11/13/13 10/14/14 13/15/15
f 13/15/15 10/14/14 14/16/16
f 15/17/17 13/18/18 16/19/19
f 16/19/19 13/18/18 14/20/20
f 6/21/21 9/22/22 7/23/23
f 7/23/23 9/22/22 12/24/24
f 2/25/25 15/26/26 3/27/27
f 3/27/27 15/26/26 16/28/28
f 1/29/29 4/30/30 8/31/31
f 8/31/31 4/30/30 5/32/32
f 8/33/33 17/34/34 1/35/35
f 1/35/35 17/34/34 18/36/36
f 7/37/37 19/38/38 8/39/39
f 8/39/39 19/38/38 17/40/40
f 12/41/41 20/42/42 7/43/43
f 7/43/43 20/42/42 19/44/44
f 11/45/45 21/46/46 12/47/47
f 12/47/47 21/46/46 20/48/48
f 23/49/49 4/50/50 22/51/51
f 22/51/51 4/50/50 3/52/52
f 22/51/51 3/52/52 25/53/53
f 25/53/53 3/52/52 16/54/54
f 25/53/53 16/54/54 14/55/55
f 24/56/56 10/57/57 23/49/49
f 23/49/49 10/57/57 9/58/58
f 23/49/49 9/58/58 4/50/50
f 4/50/50 9/58/58 5/59/59
f 5/59/59 9/58/58 6/60/60
f 10/57/57 24/56/56 14/55/55
f 14/55/55 24/56/56 25/53/53
f 1/61/61 18/62/62 2/63/63
f 2/63/63 18/62/62 26/64/64
f 2/65/65 26/66/66 15/67/67
f 15/67/67 26/66/66 27/68/68
f 13/69/69 28/70/70 11/71/71
f 11/71/71 28/70/70 21/72/72
f 17/73/73 19/74/74 18/75/75
f 18/75/75 19/74/74 20/76/76
f 18/75/75 20/76/76 30/77/77
f 30/77/77 20/76/76 29/78/78
f 29/78/78 20/76/76 21/79/79
f 29/78/78 21/79/79 32/80/80
f 32/80/80 21/79/79 28/81/81
f 32/80/80 28/81/81 27/82/82
f 32/80/80 27/82/82 31/83/83
f 31/83/83 27/82/82 26/84/84
f 31/83/83 26/84/84 30/77/77
f 30/77/77 26/84/84 18/75/75
f 15/85/85 27/86/86 13/87/87
f 13/87/87 27/86/86 28/88/88
f 34/89/89 22/90/90 33/91/91
f 33/91/91 22/90/90 25/92/92
f 25/93/93 24/94/94 33/95/95
f 33/95/95 24/94/94 35/96/96
f 24/97/97 23/98/98 35/99/99
f 35/99/99 23/98/98 36/100/100
f 34/101/101 33/102/102 37/103/103
f 37/103/103 33/102/102 31/104/104
f 37/103/103 31/104/104 30/105/105
f 33/106/106 35/107/107 31/108/108
f 31/108/108 35/107/107 32/109/109
f 36/110/110 38/111/111 35/112/112
f 35/112/112 38/111/111 32/113/113
f 32/113/113 38/111/111 29/114/114
f 37/115/115 38/116/116 34/117/117
f 34/117/117 38/116/116 36/118/118
f 34/117/117 36/118/118 22/119/119
f 22/119/119 36/118/118 23/120/120
f 38/121/121 37/122/122 29/123/123
f 29/123/123 37/122/122 30/124/124
# 38 vertices
# 124 texture params
# 124 normals
# 76 facets

# 1 groups
