# WaveFront *.obj file (generated by Autodesk ATF)

mtllib Shelves.mtl

g Shelf

v 0.021000 0.000000 0.020500
v 0.021000 -0.000500 0.020000
v 0.024000 -0.000500 0.020000
v 0.024000 0.000000 0.020500
v 0.021000 -0.001000 0.020000
v 0.022000 -0.002000 0.020000
v 0.024000 -0.002000 0.020000
v -0.021000 -0.000500 0.020000
v -0.021000 0.000000 0.020500
v -0.024000 0.000000 0.020500
v -0.024000 -0.000500 0.020000
v 0.024000 0.000000 0.022500
v -0.024000 0.000000 0.022500
v -0.021000 0.000000 0.000000
v 0.021000 0.000000 0.000000
v 0.022000 -0.002000 0.000000
v 0.024000 -0.002000 0.000000
v 0.021000 -0.001000 0.000000
v -0.021000 -0.001000 0.000000
v -0.021000 -0.001000 0.020000
v -0.022000 -0.002000 0.000000
v -0.022000 -0.002000 0.020000
v -0.024000 -0.002000 0.000000
v -0.024000 -0.002000 0.020000
v -0.024000 0.000500 0.023000
v 0.024000 0.000500 0.023000
v 0.024000 0.001500 0.023000
v -0.024000 0.001500 0.023000
v 0.024000 0.002000 0.000000
v 0.024000 0.002000 0.022500
v -0.024000 0.002000 0.022500
v -0.024000 0.002000 0.000000
vt -0.225000 -0.035355 0.000000
vt 0.075000 -0.035355 0.000000
vt -0.225000 0.035355 0.000000
vt 0.075000 0.035355 0.000000
vt -0.150000 0.050000 0.000000
vt -0.150000 0.000000 0.000000
vt 0.150000 0.050000 0.000000
vt -0.050000 -0.100000 0.000000
vt 0.150000 -0.100000 0.000000
vt -2.175000 0.035355 0.000000
vt -2.475000 0.035355 0.000000
vt -2.175000 -0.035355 0.000000
vt -2.475000 -0.035355 0.000000
vt 0.000000 0.450000 0.000000
vt 0.000000 0.250000 0.000000
vt 0.300000 0.450000 0.000000
vt 4.800000 0.250000 0.000000
vt 4.500000 0.450000 0.000000
vt 4.800000 0.450000 0.000000
vt 4.500000 2.500000 0.000000
vt 0.300000 2.500000 0.000000
vt 0.000000 0.000000 0.000000
vt 0.200000 0.000000 0.000000
vt 0.000000 2.000000 0.000000
vt 0.200000 2.000000 0.000000
vt 0.000000 0.000000 0.000000
vt 0.141421 0.000000 0.000000
vt 0.000000 2.000000 0.000000
vt 0.141421 2.000000 0.000000
vt -0.000000 2.050000 0.000000
vt -0.000000 0.000000 0.000000
vt 0.050000 2.000000 0.000000
vt 0.100000 0.000000 0.000000
vt 0.100000 2.000000 0.000000
vt 0.000000 2.000000 0.000000
vt 0.000000 0.000000 0.000000
vt 0.050000 2.000000 0.000000
vt 0.100000 0.000000 0.000000
vt 0.100000 2.050000 0.000000
vt 0.000000 0.000000 0.000000
vt 0.141421 0.000000 0.000000
vt 0.000000 2.000000 0.000000
vt 0.141421 2.000000 0.000000
vt 0.000000 0.000000 0.000000
vt 0.200000 0.000000 0.000000
vt 0.000000 2.000000 0.000000
vt 0.200000 2.000000 0.000000
vt 0.150000 0.050000 0.000000
vt -0.150000 0.050000 0.000000
vt 0.150000 0.000000 0.000000
vt 0.050000 -0.100000 0.000000
vt -0.150000 -0.100000 0.000000
vt -3.600000 -0.035355 0.000000
vt 1.200000 -0.035355 0.000000
vt -3.600000 0.035355 0.000000
vt 1.200000 0.035355 0.000000
vt -2.400000 -0.050000 0.000000
vt 2.400000 -0.050000 0.000000
vt -2.400000 0.050000 0.000000
vt 2.400000 0.050000 0.000000
vt 0.200000 0.250000 0.000000
vt 0.200000 0.450000 0.000000
vt 0.150000 0.200000 0.000000
vt 0.050000 0.200000 0.000000
vt 0.000000 2.500000 0.000000
vt 0.000000 0.250000 0.000000
vt 0.250000 0.500000 0.000000
vt 0.400000 2.500000 0.000000
vt 0.400000 0.500000 0.000000
vt 3.600000 0.035355 0.000000
vt -1.200000 0.035355 0.000000
vt 3.600000 -0.035355 0.000000
vt -1.200000 -0.035355 0.000000
vt 0.000000 0.250000 0.000000
vt 4.800000 0.250000 0.000000
vt 0.000000 2.500000 0.000000
vt 4.800000 2.500000 0.000000
vt 0.000000 0.250000 0.000000
vt 0.050000 0.200000 0.000000
vt 0.000000 0.450000 0.000000
vt 0.150000 0.200000 0.000000
vt 0.200000 2.500000 0.000000
vt 0.200000 0.250000 0.000000
vt -0.050000 0.500000 0.000000
vt -0.200000 2.500000 0.000000
vt -0.200000 0.500000 0.000000
vt 2.100000 -0.100000 0.000000
vt -2.400000 0.100000 0.000000
vt -2.100000 -0.100000 0.000000
vt -2.400000 -0.300000 0.000000
vt -2.100000 -0.200000 0.000000
vt -2.200000 -0.300000 0.000000
vt 2.100000 -0.200000 0.000000
vt 2.400000 -0.300000 0.000000
vt 2.400000 0.100000 0.000000
vt 2.200000 -0.300000 0.000000
vn 0.000000 -70.710678 70.710678
vn 0.000000 -70.710678 70.710678
vn 0.000000 -70.710678 70.710678
vn 0.000000 -70.710678 70.710678
vn 0.000000 0.000000 100.000000
vn 0.000000 0.000000 100.000000
vn 0.000000 0.000000 100.000000
vn 0.000000 0.000000 100.000000
vn 0.000000 0.000000 100.000000
vn 0.000000 -70.710678 70.710678
vn 0.000000 -70.710678 70.710678
vn 0.000000 -70.710678 70.710678
vn 0.000000 -70.710678 70.710678
vn 0.000000 -100.000000 0.000000
vn 0.000000 -100.000000 0.000000
vn 0.000000 -100.000000 0.000000
vn 0.000000 -100.000000 0.000000
vn 0.000000 -100.000000 0.000000
vn 0.000000 -100.000000 0.000000
vn 0.000000 -100.000000 0.000000
vn 0.000000 -100.000000 0.000000
vn 0.000000 -100.000000 0.000000
vn 0.000000 -100.000000 0.000000
vn 0.000000 -100.000000 0.000000
vn 0.000000 -100.000000 0.000000
vn -70.710678 -70.710678 0.000000
vn -70.710678 -70.710678 0.000000
vn -70.710678 -70.710678 0.000000
vn -70.710678 -70.710678 0.000000
vn -100.000000 0.000000 0.000000
vn -100.000000 0.000000 0.000000
vn -100.000000 0.000000 0.000000
vn -100.000000 0.000000 0.000000
vn -100.000000 0.000000 0.000000
vn 100.000000 0.000000 0.000000
vn 100.000000 0.000000 0.000000
vn 100.000000 0.000000 0.000000
vn 100.000000 0.000000 0.000000
vn 100.000000 0.000000 0.000000
vn 70.710678 -70.710678 0.000000
vn 70.710678 -70.710678 0.000000
vn 70.710678 -70.710678 0.000000
vn 70.710678 -70.710678 0.000000
vn 0.000000 -100.000000 0.000000
vn 0.000000 -100.000000 0.000000
vn 0.000000 -100.000000 0.000000
vn 0.000000 -100.000000 0.000000
vn 0.000000 0.000000 100.000000
vn 0.000000 0.000000 100.000000
vn 0.000000 0.000000 100.000000
vn 0.000000 0.000000 100.000000
vn 0.000000 0.000000 100.000000
vn 0.000000 -70.710678 70.710678
vn 0.000000 -70.710678 70.710678
vn 0.000000 -70.710678 70.710678
vn 0.000000 -70.710678 70.710678
vn 0.000000 0.000000 100.000000
vn 0.000000 0.000000 100.000000
vn 0.000000 0.000000 100.000000
vn 0.000000 0.000000 100.000000
vn 100.000000 0.000000 0.000000
vn 100.000000 0.000000 0.000000
vn 100.000000 0.000000 0.000000
vn 100.000000 0.000000 0.000000
vn 100.000000 0.000000 0.000000
vn 100.000000 0.000000 0.000000
vn 100.000000 0.000000 0.000000
vn 100.000000 0.000000 0.000000
vn 100.000000 0.000000 0.000000
vn 0.000000 70.710678 70.710678
vn 0.000000 70.710678 70.710678
vn 0.000000 70.710678 70.710678
vn 0.000000 70.710678 70.710678
vn 0.000000 100.000000 0.000000
vn 0.000000 100.000000 0.000000
vn 0.000000 100.000000 0.000000
vn 0.000000 100.000000 0.000000
vn -100.000000 0.000000 0.000000
vn -100.000000 0.000000 0.000000
vn -100.000000 0.000000 0.000000
vn -100.000000 0.000000 0.000000
vn -100.000000 0.000000 0.000000
vn -100.000000 0.000000 0.000000
vn -100.000000 0.000000 0.000000
vn -100.000000 0.000000 0.000000
vn -100.000000 0.000000 0.000000
vn 0.000000 0.000000 -100.000000
vn 0.000000 0.000000 -100.000000
vn 0.000000 0.000000 -100.000000
vn 0.000000 0.000000 -100.000000
vn 0.000000 0.000000 -100.000000
vn 0.000000 0.000000 -100.000000
vn 0.000000 0.000000 -100.000000
vn 0.000000 0.000000 -100.000000
vn 0.000000 0.000000 -100.000000
vn 0.000000 0.000000 -100.000000
usemtl Steel_-_Satin
f 2/1/1 3/2/2 1/3/3
f 1/3/3 3/2/2 4/4/4
f 2/5/5 5/6/6 3/7/7
f 3/7/7 5/6/6 6/8/8
f 3/7/7 6/8/8 7/9/9
f 9/10/10 10/11/11 8/12/12
f 8/12/12 10/11/11 11/13/13
f 4/14/14 12/15/15 1/16/16
f 1/16/16 12/15/15 13/17/17
f 1/16/16 13/17/17 9/18/18
f 9/18/18 13/17/17 10/19/19
f 14/20/20 15/21/21 9/18/18
f 9/18/18 15/21/21 1/16/16
f 16/22/22 17/23/23 6/24/24
f 6/24/24 17/23/23 7/25/25
f 18/26/26 16/27/27 5/28/28
f 5/28/28 16/27/27 6/29/29
f 1/30/30 15/31/31 2/32/32
f 2/32/32 15/31/31 18/33/33
f 2/32/32 18/33/33 5/34/34
f 20/35/35 19/36/36 8/37/37
f 8/37/37 19/36/36 14/38/38
f 8/37/37 14/38/38 9/39/39
f 21/40/40 19/41/41 22/42/42
f 22/42/42 19/41/41 20/43/43
f 23/44/44 21/45/45 24/46/46
f 24/46/46 21/45/45 22/47/47
f 8/48/48 11/49/49 20/50/50
f 20/50/50 11/49/49 22/51/51
f 22/51/51 11/49/49 24/52/52
f 13/53/53 12/54/54 25/55/55
f 25/55/55 12/54/54 26/56/56
f 25/57/57 26/58/58 28/59/59
f 28/59/59 26/58/58 27/60/60
f 12/61/61 4/62/62 26/63/63
f 26/63/63 4/62/62 27/64/64
f 27/64/64 4/62/62 29/65/65
f 27/64/64 29/65/65 30/66/66
f 4/62/62 3/67/67 29/65/65
f 29/65/65 3/67/67 17/68/68
f 17/68/68 3/67/67 7/69/69
f 30/70/70 31/71/71 27/72/72
f 27/72/72 31/71/71 28/73/73
f 31/74/74 30/75/75 32/76/76
f 32/76/76 30/75/75 29/77/77
f 13/78/78 25/79/79 10/80/80
f 10/80/80 25/79/79 28/81/81
f 10/80/80 28/81/81 32/82/82
f 32/82/82 28/81/81 31/83/83
f 10/80/80 32/82/82 11/84/84
f 11/84/84 32/82/82 23/85/85
f 11/84/84 23/85/85 24/86/86
f 14/87/87 29/88/88 15/89/89
f 15/89/89 29/88/88 17/90/90
f 15/89/89 17/90/90 18/91/91
f 18/91/91 17/90/90 16/92/92
f 19/93/93 23/94/94 14/87/87
f 14/87/87 23/94/94 32/95/95
f 14/87/87 32/95/95 29/88/88
f 19/93/93 21/96/96 23/94/94
g Panel

v 0.001000 0.075000 0.024700
v 0.000700 0.075000 0.025000
v 0.000700 0.000000 0.025000
v 0.001000 0.000000 0.024700
v 0.001000 0.000000 0.000000
v 0.001000 0.075000 0.000000
v -0.000700 0.000000 0.025000
v -0.001000 0.000000 0.024700
v -0.001000 0.000000 0.000000
v -0.000700 0.075000 0.025000
v -0.001000 0.075000 0.024700
v -0.001000 0.075000 0.000000
vt 0.021213 5.625000 0.000000
vt -0.021213 5.625000 0.000000
vt 0.021213 -1.875000 0.000000
vt -0.021213 -1.875000 0.000000
vt 7.500000 2.470000 0.000000
vt 0.000000 2.470000 0.000000
vt 7.500000 0.000000 0.000000
vt 0.000000 0.000000 0.000000
vt 5.000000 2.470000 0.000000
vt 4.970000 2.500000 0.000000
vt 5.000000 0.000000 0.000000
vt 4.830000 2.500000 0.000000
vt 4.800000 0.000000 0.000000
vt 4.800000 2.470000 0.000000
vt -0.021213 -5.625000 0.000000
vt 0.021213 -5.625000 0.000000
vt -0.021213 1.875000 0.000000
vt 0.021213 1.875000 0.000000
vt -7.500000 0.030000 0.000000
vt -0.000000 0.030000 0.000000
vt -7.500000 2.500000 0.000000
vt -0.000000 2.500000 0.000000
vt 2.470000 3.750000 0.000000
vt 2.330000 3.750000 0.000000
vt 2.470000 -3.750000 0.000000
vt 2.330000 -3.750000 0.000000
vt -2.300000 3.750000 0.000000
vt -2.500000 3.750000 0.000000
vt -2.300000 -3.750000 0.000000
vt -2.500000 -3.750000 0.000000
vt -0.000000 2.470000 0.000000
vt -0.000000 0.000000 0.000000
vt 0.030000 2.500000 0.000000
vt 0.200000 0.000000 0.000000
vt 0.170000 2.500000 0.000000
vt 0.200000 2.470000 0.000000
vn 70.710678 0.000000 70.710678
vn 70.710678 0.000000 70.710678
vn 70.710678 0.000000 70.710678
vn 70.710678 0.000000 70.710678
vn 100.000000 0.000000 0.000000
vn 100.000000 0.000000 0.000000
vn 100.000000 0.000000 0.000000
vn 100.000000 0.000000 0.000000
vn 0.000000 -100.000000 0.000000
vn 0.000000 -100.000000 0.000000
vn 0.000000 -100.000000 0.000000
vn 0.000000 -100.000000 0.000000
vn 0.000000 -100.000000 0.000000
vn 0.000000 -100.000000 0.000000
vn -70.710678 0.000000 70.710678
vn -70.710678 0.000000 70.710678
vn -70.710678 0.000000 70.710678
vn -70.710678 0.000000 70.710678
vn -100.000000 0.000000 0.000000
vn -100.000000 0.000000 0.000000
vn -100.000000 0.000000 0.000000
vn -100.000000 0.000000 0.000000
vn 0.000000 0.000000 100.000000
vn 0.000000 0.000000 100.000000
vn 0.000000 0.000000 100.000000
vn 0.000000 0.000000 100.000000
vn 0.000000 0.000000 -100.000000
vn 0.000000 0.000000 -100.000000
vn 0.000000 0.000000 -100.000000
vn 0.000000 0.000000 -100.000000
vn 0.000000 100.000000 0.000000
vn 0.000000 100.000000 0.000000
vn 0.000000 100.000000 0.000000
vn 0.000000 100.000000 0.000000
vn 0.000000 100.000000 0.000000
vn 0.000000 100.000000 0.000000
f 33/97/97 34/98/98 36/99/99
f 36/99/99 34/98/98 35/100/100
f 33/101/101 36/102/102 38/103/103
f 38/103/103 36/102/102 37/104/104
f 36/105/105 35/106/106 37/107/107
f 37/107/107 35/106/106 39/108/108
f 37/107/107 39/108/108 41/109/109
f 41/109/109 39/108/108 40/110/110
f 40/111/111 39/112/112 43/113/113
f 43/113/113 39/112/112 42/114/114
f 40/115/115 43/116/116 41/117/117
f 41/117/117 43/116/116 44/118/118
f 34/119/119 42/120/120 35/121/121
f 35/121/121 42/120/120 39/122/122
f 44/123/123 38/124/124 41/125/125
f 41/125/125 38/124/124 37/126/126
f 33/127/127 38/128/128 34/129/129
f 34/129/129 38/128/128 44/130/130
f 34/129/129 44/130/130 42/131/131
f 42/131/131 44/130/130 43/132/132
# 44 vertices
# 132 texture params
# 132 normals
# 80 facets

# 2 groups
